<svg width="52px" height="52px" viewBox="140 -2 52 52" version="1.1" xmlns="http://www.w3.org/2000/svg" xmlns:xlink="http://www.w3.org/1999/xlink">
    <!-- Generator: Sketch 42 (36781) - http://www.bohemiancoding.com/sketch -->
    <desc>Created with Sketch.</desc>
    <defs></defs>
    <g id="icon_agile" stroke="none" stroke-width="1" fill="none" fill-rule="evenodd" transform="translate(142.000000, 0.000000)" stroke-linecap="round" stroke-linejoin="round">
        <polyline id="Stroke-1" stroke="#0090D1" stroke-width="2" points="34.758869 28.137931 41.3795586 21.5172414 48.0002483 28.137931"></polyline>
        <path d="M20.6899034,45.5011034 C20.9439724,45.5110345 21.2261793,45.5176552 21.486869,45.5176552 C32.4714207,45.5176552 41.3795586,36.5606897 41.3795586,25.5157241 L41.3795586,21.5176552" id="Stroke-3" stroke="#0090D1" stroke-width="2"></path>
        <polyline id="Stroke-5" stroke="#000000" stroke-width="2" points="16.5519724 12.4137931 7.44852414 9.78868966 9.88742069 0"></polyline>
        <path d="M39.3105931,15.7241379 C39.1881103,15.4948966 39.0490759,15.2466207 38.9191448,15.0198621 C33.3494897,5.40496552 21.006869,2.11034483 11.3555586,7.66013793 L7.86231724,9.67117241" id="Stroke-7" stroke="#000000" stroke-width="2"></path>
        <polyline id="Stroke-9" stroke="#000000" stroke-width="2" points="11.6317241 35.5862069 14.0689655 45.3748966 4.96551724 48"></polyline>
        <path d="M3.09558621,14.8965517 C2.95655172,15.1150345 2.8142069,15.3111724 2.6817931,15.5362759 C-2.83986207,25.1015172 0.438206897,37.3332414 10.0042759,42.8548966 L13.466069,44.8551724" id="Stroke-11" stroke="#000000" stroke-width="2"></path>
    </g>
</svg>
