<svg width="42px" height="51px" viewBox="144 -1 42 51" version="1.1" xmlns="http://www.w3.org/2000/svg" xmlns:xlink="http://www.w3.org/1999/xlink">
    <!-- Generator: Sketch 42 (36781) - http://www.bohemiancoding.com/sketch -->
    <desc>Created with Sketch.</desc>
    <defs></defs>
    <g id="Page-1" stroke="none" stroke-width="1" fill="none" fill-rule="evenodd" transform="translate(146.000000, 0.000000)" stroke-linecap="round" stroke-linejoin="round">
        <path d="M37.5630621,21.5810483 C36.0146483,28.2869793 31.4480276,31.9507034 31.4480276,31.9507034 L34.7583724,48.0000828 L17.4469241,48.0000828 L15.861269,44.6897379 L8.53133793,43.4111172 C7.2494069,43.187669 6.26954483,42.1457379 6.12637241,40.8538759 L4.96526897,30.3998069 L-0.000248275862,28.8000828 L3.31009655,19.5112552" id="Stroke-1" stroke="#000000" stroke-width="2"></path>
        <path d="M3.31034483,19.5113379 L3.31034483,16.8705103 C3.31034483,7.42444138 11.697931,0.000165517241 21.0827586,0.000165517241 C21.5073103,0.000165517241 21.9277241,0.0158896552 22.3448276,0.0465103448" id="Stroke-3" stroke="#000000" stroke-width="2"></path>
        <path d="M32.2807448,18.2068966 C29.9966069,18.2068966 29.8186759,16.329931 29.8186759,16.329931 L29.8186759,12.816 C29.8186759,12.816 29.8319172,11.7674483 29.2857103,11.342069 L29.2857103,11.3437241 C27.6172966,10.0808276 26.4826759,8.32882759 26.4826759,6.11006897 C26.4826759,2.736 29.0771586,0 32.2807448,0 C35.4826759,0 38.0771586,2.736 38.0771586,6.11006897 C38.0771586,8.32882759 36.9425379,10.0808276 35.2741241,11.3437241 L35.2741241,11.342069 C34.7461241,11.7417931 34.7585379,12.816 34.7585379,12.816 L34.7585379,16.329931 C34.7585379,16.329931 34.5632276,18.2068966 32.2807448,18.2068966 Z" id="Stroke-5" stroke="#0090D1" stroke-width="2"></path>
        <path d="M30.6206897,14.0689655 L33.9310345,14.0689655" id="Stroke-7" stroke="#0090D1" stroke-width="2"></path>
    </g>
</svg>
