<svg width="63px" height="51px" viewBox="134 -1 63 51" version="1.1" xmlns="http://www.w3.org/2000/svg" xmlns:xlink="http://www.w3.org/1999/xlink">
    <!-- Generator: Sketch 42 (36781) - http://www.bohemiancoding.com/sketch -->
    <desc>Created with Sketch.</desc>
    <defs></defs>
    <g id="Page-1" stroke="none" stroke-width="1" fill="none" fill-rule="evenodd" transform="translate(135.000000, 0.000000)" stroke-linecap="round" stroke-linejoin="round">
        <path d="M31.3043478,43.826087 L12.1043478,43.826087 C5.42921739,43.826087 0,38.4636522 0,31.8730435 C0,26.592 3.4706087,22.1102609 8.29252174,20.5398261 C8.15165217,19.6789565 8.07026087,18.8233043 8.07026087,17.9290435 C8.07026087,8.0253913 16.202087,0 26.2257391,0 C34.1530435,0 40.8730435,5.01808696 43.3554783,12.0104348 C43.6956522,11.9718261 44.04,11.9509565 44.3822609,11.9509565 C53.2987826,11.9509565 60.5217391,19.370087 60.5217391,28.173913" id="Stroke-1" stroke="#000000" stroke-width="2"></path>
        <path d="M39.6521739,39.6521739 C39.6521739,44.2622609 43.389913,48 48,48 C52.605913,48 56.3478261,44.2622609 56.3478261,39.6521739 C56.3478261,35.042087 52.605913,31.3043478 48,31.3043478 L43.826087,31.3043478" id="Stroke-3" stroke="#0090D1" stroke-width="2"></path>
        <polyline id="Stroke-5" stroke="#0090D1" stroke-width="2" points="48 35.4782609 43.826087 31.3043478 48 27.1304348"></polyline>
    </g>
</svg>
