<?xml version="1.0" encoding="UTF-8" standalone="no"?>
<svg width="265px" height="236px" viewBox="0 0 265 236" version="1.1" xmlns="http://www.w3.org/2000/svg" xmlns:xlink="http://www.w3.org/1999/xlink">
    <!-- Generator: Sketch 42 (36781) - http://www.bohemiancoding.com/sketch -->
    <title>ilustracja_saving time</title>
    <desc>Created with Sketch.</desc>
    <defs>
        <polygon id="path-1" points="0.0534541176 0.609995101 0.0534541176 5.37226801 19.7278922 5.37226801 19.7278922 0.609995101 0.0534541176 0.609995101"></polygon>
        <polygon id="path-3" points="0.0534541176 0.135482133 0.0534541176 10.4356686 19.7278922 10.4356686 19.7278922 0.135482133"></polygon>
        <polygon id="path-5" points="0.0534541176 8.31945648 0.0534541176 0.13627781 16.2396499 0.13627781 16.2396499 8.31945648 0.0534541176 8.31945648"></polygon>
        <polygon id="path-7" points="26.9009292 4.64892507 0.224435059 4.64892507 0.224435059 0.0170708934 26.9009292 0.0170708934"></polygon>
        <polygon id="path-9" points="26.9009292 10.4356686 0.224435059 10.4356686 0.224435059 0.26228415 26.9009292 0.26228415"></polygon>
        <polygon id="path-11" points="26.8508701 4.64892507 0.174376 4.64892507 0.174376 0.0170708934 26.8508701 0.0170708934 26.8508701 4.64892507"></polygon>
        <polygon id="path-13" points="26.8508701 10.4356686 0.174376 10.4356686 0.174376 0.26228415 26.8508701 0.26228415"></polygon>
        <polygon id="path-15" points="26.7982828 4.64892507 0.123955765 4.64892507 0.123955765 0.141268876 26.7982828 0.141268876 26.7982828 4.64892507"></polygon>
        <polygon id="path-17" points="26.7982828 10.4356686 0.123955765 10.4356686 0.123955765 0.389375504 26.7982828 0.389375504 26.7982828 10.4356686"></polygon>
        <polygon id="path-19" points="19.7440729 0.141268876 19.7440729 4.64892507 0.0712962353 4.64892507 0.0712962353 0.141268876"></polygon>
        <polygon id="path-21" points="19.7440729 0.389375504 19.7440729 10.4356686 0.0712962353 10.4356686 0.0712962353 0.389375504 19.7440729 0.389375504"></polygon>
        <polygon id="path-23" points="16.8546612 0.393426225 16.8546612 8.57443487 0.670126824 8.57443487 0.670126824 0.393426225 16.8546612 0.393426225"></polygon>
    </defs>
    <g id="Page-1" stroke="none" stroke-width="1" fill="none" fill-rule="evenodd">
        <g id="Aplikacje.gov.pl---Oświadczenie" transform="translate(-988.000000, -1489.000000)">
            <g id="Inteligentna-wyszukiwarka" transform="translate(433.000000, 1489.000000)">
                <g id="ilustracja_saving-time" transform="translate(555.000000, 0.000000)">
                    <g id="zegar" transform="translate(0.000000, 119.000000)">
                        <path d="M36.7249,6 C19.756,6 6,19.7579 6,36.7249 C6,53.6938 19.756,67.4498 36.7249,67.4498 C53.6957,67.4498 67.4498,53.6938 67.4498,36.7249 C67.4498,19.7579 53.6957,6 36.7249,6" id="Fill-191" fill="#FFFFFF"></path>
                        <path d="M9.5093,39.6319 C9.5093,22.663 23.2653,8.907 40.2361,8.907 C46.869,8.907 52.9946,11.0312 58.0163,14.6051 C52.493,9.287 44.9994,6 36.7249,6 C19.7579,6 6,19.7579 6,36.7249 C6,47.0609 11.1224,56.1828 18.9447,61.7536 C13.1383,56.1638 9.5093,48.3282 9.5093,39.6319" id="Fill-193" fill="#D6D6D6"></path>
                        <path d="M36.8486,67.5735 C19.8797,67.5735 6.1237,53.8175 6.1237,36.8486 C6.1237,19.8797 19.8797,6.1237 36.8486,6.1237 C53.8194,6.1237 67.5735,19.8797 67.5735,36.8486 C67.5735,53.8175 53.8194,67.5735 36.8486,67.5735 M36.8486,0 C16.4977,0 0,16.4977 0,36.8486 C0,57.1995 16.4977,73.6972 36.8486,73.6972 C57.1995,73.6972 73.6991,57.1995 73.6991,36.8486 C73.6991,16.4977 57.1995,0 36.8486,0" id="Fill-195" fill="#2D3C50"></path>
                        <path d="M37.5219,65.8868 C37.5219,66.3067 37.1799,66.6468 36.7619,66.6468 C36.342,66.6468 36,66.3067 36,65.8868 L36,61.7619 C36,61.3401 36.342,61 36.7619,61 C37.1799,61 37.5219,61.3401 37.5219,61.7619 L37.5219,65.8868 Z" id="Fill-197" fill="#2D3C50"></path>
                        <path d="M37.5219,11.8868 C37.5219,12.3067 37.1799,12.6468 36.7619,12.6468 C36.342,12.6468 36,12.3067 36,11.8868 L36,7.76 C36,7.3401 36.342,7 36.7619,7 C37.1799,7 37.5219,7.3401 37.5219,7.76 L37.5219,11.8868 Z" id="Fill-199" fill="#2D3C50"></path>
                        <path d="M65.8849,36 C66.3067,36 66.6449,36.3401 66.6449,36.76 C66.6449,37.1799 66.3067,37.52 65.8849,37.52 L61.76,37.52 C61.3401,37.52 61,37.1799 61,36.76 C61,36.3401 61.3401,36 61.76,36 L65.8849,36 Z" id="Fill-201" fill="#2D3C50"></path>
                        <path d="M11.8849,36 C12.3048,36 12.6449,36.3401 12.6449,36.76 C12.6449,37.1799 12.3048,37.52 11.8849,37.52 L7.76,37.52 C7.3382,37.52 7,37.1799 7,36.76 C7,36.3401 7.3382,36 7.76,36 L11.8849,36 Z" id="Fill-203" fill="#2D3C50"></path>
                        <path d="M15.8265,57.675675 C15.6365,57.865675 15.3306,57.865675 15.1425,57.675675 C14.9525,57.487575 14.9525,57.181675 15.1425,56.993575 L16.9931,55.141075 C17.1831,54.952975 17.489,54.952975 17.6771,55.141075 C17.8652,55.331075 17.8652,55.635075 17.6771,55.825075 L15.8265,57.675675 Z" id="Fill-205" fill="#2D3C50"></path>
                        <path d="M56.716775,18.32655 C56.551475,18.48995 56.285475,18.48995 56.123975,18.32655 C55.958675,18.16315 55.958675,17.89525 56.123975,17.73375 L57.731375,16.12255 C57.896675,15.95915 58.162675,15.95915 58.326075,16.12255 C58.489475,16.28785 58.489475,16.55195 58.326075,16.71535 L56.716775,18.32655 Z" id="Fill-207" fill="#2D3C50"></path>
                        <path d="M57.5783,56.9209 C57.7607,57.1014 57.7607,57.3959 57.5783,57.5764 C57.3959,57.7588 57.1014,57.7588 56.919,57.5764 L55.1368,55.7942 C54.9544,55.6118 54.9544,55.3173 55.1368,55.1368 C55.3192,54.9544 55.6118,54.9544 55.7942,55.1368 L57.5783,56.9209 Z" id="Fill-209" fill="#2D3C50"></path>
                        <path d="M18.10805,16.57035 C18.25625,16.72045 18.25625,16.95985 18.10805,17.10805 C17.95795,17.25625 17.71855,17.25625 17.57035,17.10805 L16.11115,15.65075 C15.96295,15.50065 15.96295,15.26125 16.11115,15.11115 C16.25935,14.96295 16.49875,14.96295 16.64885,15.11115 L18.10805,16.57035 Z" id="Fill-211" fill="#2D3C50"></path>
                        <path d="M9.66757888,47.9199927 C9.41867888,48.0206927 9.13937888,47.9028927 9.03677888,47.6558927 C8.93417888,47.4088927 9.05387888,47.1276927 9.30087888,47.0269927 L11.7252789,46.0351927 C11.9722789,45.9363927 12.2534789,46.0522927 12.3541789,46.2992927 C12.4548789,46.5481927 12.3370789,46.8293927 12.0881789,46.9300927 L9.66757888,47.9199927 Z" id="Fill-213" fill="#2D3C50"></path>
                        <path d="M61.5784019,26.668975 C61.3637019,26.756375 61.1186019,26.653775 61.0312019,26.439075 C60.9438019,26.224375 61.0464019,25.979275 61.2592019,25.891875 L63.3663019,25.031175 C63.5810019,24.943775 63.8261019,25.046375 63.9135019,25.261075 C64.0009019,25.475775 63.8983019,25.718975 63.6836019,25.806375 L61.5784019,26.668975 Z" id="Fill-215" fill="#2D3C50"></path>
                        <path d="M48.8509346,63.6242346 C48.9478346,63.8617346 48.8319346,64.1334346 48.5944346,64.2303346 C48.3569346,64.3291346 48.0871346,64.2132346 47.9883346,63.9757346 L47.0345346,61.6425346 C46.9376346,61.4050346 47.0516346,61.1314346 47.2891346,61.0345346 C47.5266346,60.9376346 47.7983346,61.0516346 47.8952346,61.2891346 L48.8509346,63.6242346 Z" id="Fill-217" fill="#2D3C50"></path>
                        <path d="M26.5124815,11.1460111 C26.5922815,11.3417111 26.4991815,11.5621111 26.3053815,11.6419111 C26.1096815,11.7198111 25.8873815,11.6286111 25.8094815,11.4329111 L25.0285815,9.52341111 C24.9487815,9.32961111 25.0418815,9.10731111 25.2356815,9.02751111 C25.4313815,8.94961111 25.6536815,9.04271111 25.7315815,9.23651111 L26.5124815,11.1460111 Z" id="Fill-219" fill="#2D3C50"></path>
                        <path d="M24.9216884,64.0629032 C24.8095884,64.3023032 24.5226884,64.4106032 24.2813884,64.2985032 C24.0381884,64.1845032 23.9317884,63.8995032 24.0457884,63.6582032 L25.1420884,61.2813032 C25.2541884,61.0381032 25.5391884,60.9336032 25.7823884,61.0438032 C26.0236884,61.1559032 26.1300884,61.4428032 26.0179884,61.6841032 L24.9216884,64.0629032 Z" id="Fill-221" fill="#2D3C50"></path>
                        <path d="M48.8005983,12.6622949 C48.7017983,12.8712949 48.4528983,12.9643949 48.2438983,12.8674949 C48.0329983,12.7705949 47.9417983,12.5216949 48.0386983,12.3107949 L48.9924983,10.2435949 C49.0874983,10.0345949 49.3382983,9.9414949 49.5491983,10.0383949 C49.7581983,10.1352949 49.8512983,10.3841949 49.7524983,10.5950949 L48.8005983,12.6622949 Z" id="Fill-223" fill="#2D3C50"></path>
                        <path d="M63.9483078,48.0995701 C64.1820078,48.2078701 64.2846078,48.4833701 64.1744078,48.7170701 C64.0680078,48.9507701 63.7925078,49.0514701 63.5588078,48.9431701 L61.2693078,47.8867701 C61.0375078,47.7784701 60.9349078,47.5048701 61.0432078,47.2711701 C61.1477078,47.0374701 61.4270078,46.9348701 61.6588078,47.0431701 L63.9483078,48.0995701 Z" id="Fill-225" fill="#2D3C50"></path>
                        <path d="M12.4134311,24.8994719 C12.6034311,24.9868719 12.6870311,25.2129719 12.5996311,25.4029719 C12.5103311,25.5929719 12.2861311,25.6765719 12.0942311,25.5891719 L10.2227311,24.7246719 C10.0308311,24.6372719 9.94723109,24.4111719 10.0346311,24.2211719 C10.1239311,24.0292719 10.3500311,23.9475719 10.5400311,24.0349719 L12.4134311,24.8994719 Z" id="Fill-227" fill="#2D3C50"></path>
                        <path d="M33.814,35.7665 L28,57.2232 L39.4627,38.1757 C39.6204,37.9686 39.7629,37.7463 39.8712,37.4955 C39.9491,37.3074 40.0061,37.1155 40.0479,36.9217 L52.1186,30 L38.3664,33.42 C38.3056,33.3915 38.2543,33.3497 38.1935,33.325 C36.5785,32.6353 34.7127,33.3877 34.0211,35.0008 C33.9166,35.2516 33.8539,35.5081 33.814,35.7665" id="Fill-229" fill="#0090D1"></path>
                        <path d="M37.9233946,34.1694689 C38.9911946,34.6235689 39.4851946,35.8585689 39.0310946,36.9244689 C38.5769946,37.9922689 37.3419946,38.4862689 36.2760946,38.0321689 C35.2101946,37.5761689 34.7142946,36.3449689 35.1683946,35.2771689 C35.6224946,34.2093689 36.8555946,33.7134689 37.9233946,34.1694689" id="Fill-231" fill="#FFFFFF"></path>
                        <path d="M18.4771,44.7326 C14.8994,44.7326 12,41.8332 12,38.2555 C12,23.2265 24.2265,11 39.2555,11 C42.8313,11 45.7326,13.8994 45.7326,17.4771 C45.7326,21.0548 42.8313,23.9542 39.2555,23.9542 C31.3686,23.9542 24.9542,30.3686 24.9542,38.2555 C24.9542,41.8332 22.0548,44.7326 18.4771,44.7326" id="Fill-235" fill="#FFFFFF"></path>
                    </g>
                    <g id="kalendarz" transform="translate(172.000000, 119.000000)">
                        <path d="M80.50468,84.76634 C83.52948,85.04754 86.20848,82.82454 86.48778,79.79974 L92.73878,12.43144 C93.01998,9.40474 90.79508,6.72764 87.77218,6.44644 L38.01878,1.83134 L30.75128,80.14934 L80.50468,84.76634 Z" id="Fill-619" fill="#134F78"></path>
                        <path d="M14.4185,5.16299 L8.1675,72.53319 C7.8863,75.55609 10.1112,78.23509 13.136,78.51439 L30.7528,80.15029 L38.0184,1.83039 L20.4016,0.19639 C17.3806,-0.08481 14.6978,2.14009 14.4185,5.16299" id="Fill-621" fill="#2D3C50"></path>
                        <path d="M21.41924,62.97847 C24.47824,63.26347 26.72784,65.97287 26.44474,69.02997 C26.15974,72.08707 23.45034,74.33667 20.39324,74.05357 C17.33614,73.77047 15.08654,71.06107 15.36774,68.00207 C15.65274,64.94497 18.36404,62.69537 21.41924,62.97847" id="Fill-623" fill="#FFFFFF"></path>
                        <path d="M22.69756,49.20727 C25.75466,49.49037 28.00616,52.19977 27.72306,55.25877 C27.43806,58.31587 24.72676,60.56547 21.67156,60.28237 C18.61256,59.99927 16.36296,57.28797 16.64606,54.23087 C16.93106,51.17187 19.64046,48.92417 22.69756,49.20727" id="Fill-625" fill="#FFFFFF"></path>
                        <path d="M25.26921,21.48646 C28.32631,21.77146 30.57781,24.47896 30.29471,27.53796 C30.00971,30.59506 27.30031,32.84466 24.24321,32.56156 C21.18421,32.27846 18.93461,29.56906 19.21961,26.51006 C19.50271,23.45296 22.21211,21.20336 25.26921,21.48646" id="Fill-627" fill="#FFFFFF"></path>
                        <path d="M26.54772,7.71526 C29.60482,7.99836 31.85442,10.70776 31.57132,13.76676 C31.28632,16.82386 28.57692,19.07346 25.51982,18.79036 C22.46272,18.50536 20.21312,15.79596 20.49622,12.73886 C20.78122,9.68176 23.49062,7.43216 26.54772,7.71526" id="Fill-629" fill="#FFFFFF"></path>
                        <path d="M20.89028,66.97607 L20.55018,70.62597 C20.48178,71.37077 19.82248,71.91987 19.07578,71.84957 L1.46088,70.21557 C0.71608,70.14527 0.16698,69.48597 0.23728,68.74117 L0.57548,65.09127 C0.64578,64.34647 1.30318,63.79927 2.04988,63.86767 L19.66478,65.50167 C20.40958,65.57197 20.95868,66.23127 20.89028,66.97607" id="Fill-631" fill="#134F78"></path>
                        <path d="M22.19482,52.90429 L21.85662,56.55419 C21.78632,57.29899 21.12702,57.84809 20.38222,57.77779 L2.76542,56.14379 C2.02062,56.07539 1.47342,55.41419 1.54182,54.66939 L1.88192,51.01949 C1.95032,50.27659 2.60962,49.72749 3.35632,49.79589 L20.96932,51.43179 C21.71602,51.49829 22.26512,52.15949 22.19482,52.90429" id="Fill-633" fill="#134F78"></path>
                        <path d="M24.77749,25.06568 L24.43929,28.71558 C24.37089,29.46038 23.70969,30.00948 22.96489,29.93918 L5.34809,28.30518 C4.60519,28.23488 4.05609,27.57558 4.12639,26.83078 L4.46459,23.17898 C4.53299,22.43608 5.19229,21.88888 5.93709,21.95538 L23.55199,23.59128 C24.29869,23.65968 24.84779,24.32088 24.77749,25.06568" id="Fill-635" fill="#134F78"></path>
                        <path d="M26.08374,10.9939 L25.74364,14.6438 C25.67524,15.3886 25.01594,15.9377 24.27114,15.8674 L6.65434,14.2334 C5.90954,14.1631 5.36234,13.5038 5.43074,12.759 L5.77084,9.1091 C5.83924,8.3643 6.49854,7.8152 7.24334,7.8855 L24.85824,9.5195 C25.60494,9.5898 26.15214,10.2491 26.08374,10.9939" id="Fill-637" fill="#134F78"></path>
                        <path d="M0.23709,68.74155 C0.16679,69.48635 0.71589,70.14565 1.46259,70.21405 L19.07559,71.84995 C19.82229,71.92025 20.48159,71.37115 20.54999,70.62635 L20.71909,68.80045 L0.40619,66.91755 L0.23709,68.74155 Z" id="Fill-639" fill="#115C90"></path>
                        <path d="M1.54144,54.66977 C1.47304,55.41457 2.02024,56.07577 2.76694,56.14417 L20.38184,57.77817 C21.12664,57.84657 21.78594,57.29937 21.85624,56.55457 L22.02534,54.72867 L1.71244,52.84387 L1.54144,54.66977 Z" id="Fill-641" fill="#115C90"></path>
                        <path d="M4.1262,26.83116 C4.0559,27.57596 4.605,28.23526 5.3498,28.30556 L22.9647,29.93956 C23.7114,30.00796 24.3707,29.46076 24.4391,28.71596 L24.6082,26.89006 L4.2953,25.00526 L4.1262,26.83116 Z" id="Fill-643" fill="#115C90"></path>
                        <path d="M5.43055,12.75938 C5.36215,13.50418 5.90935,14.16348 6.65605,14.23378 L24.27095,15.86778 C25.01575,15.93618 25.67505,15.38898 25.74345,14.64418 L25.91255,12.81828 L5.60155,10.93348 L5.43055,12.75938 Z" id="Fill-645" fill="#115C90"></path>
                        <polygon id="Fill-649" fill="#FFFFFF" points="78.58055 60.4319 42.33425 57.0689 42.16705 54.8896 78.78005 58.2868"></polygon>
                        <path d="M79.06676,39.84635 C79.70706,32.94175 76.22816,29.50465 70.42176,28.96695 C64.14416,28.38365 60.97306,31.88725 60.38406,38.21615 C60.11236,41.14595 60.41256,44.18025 61.21436,47.47295 L59.23076,48.39635 L43.06556,45.20815 L44.72426,27.32155 L46.76296,27.50965 L45.27526,43.56655 L58.99896,46.31775 C58.30546,43.56465 58.17056,40.49235 58.42706,37.72025 C59.09586,30.50215 63.19796,26.07895 70.78466,26.78385 C77.47836,27.40515 81.88826,31.61175 81.12636,39.82545 C80.67226,44.74265 79.42966,48.42295 77.31116,51.39265 L75.46436,50.27165 C77.41756,47.39505 78.66016,44.23725 79.06676,39.84635" id="Fill-651" fill="#FFFFFF"></path>
                    </g>
                    <g id="icon-time" transform="translate(54.000000, 0.000000)">
                        <g id="Group-882" transform="translate(0.223529, 26.356409)">
                            <g id="Group-145" transform="translate(1.945882, 0.000000)" fill="#FFFFFF">
                                <path d="M106.168913,8.11815014 C103.896391,7.30149597 101.573304,6.53909251 99.2632193,5.84540663 L98.9648875,6.84361988 C101.256913,7.53007233 103.560497,8.28813573 105.815683,9.09900317 L106.168913,8.11815014 Z" id="Fill-3"></path>
                                <path d="M119.586041,13.7660841 C117.410314,12.7114501 115.179688,11.6994934 112.952674,10.7620409 L112.551768,11.7226403 C114.758557,12.6528594 116.973291,13.653966 119.130959,14.7028133 L119.586041,13.7660841 Z" id="Fill-7"></path>
                                <path d="M132.315417,20.8137591 C130.261768,19.5305487 128.149608,18.2871222 126.042504,17.12037 L125.539024,18.0310588 C127.630236,19.1891308 129.72506,20.4224305 131.762817,21.6984075 L132.315417,20.8137591 Z" id="Fill-11"></path>
                                <path d="M63.4583511,1.21319078 L63.4829111,0.172300288 C61.0666405,0.111539481 58.6286993,0.115879539 56.2174852,0.183873775 L56.2442122,1.22476427 C58.6417016,1.15821671 61.0630287,1.15532334 63.4583511,1.21319078" id="Fill-15"></path>
                                <path d="M49.0434369,1.61544179 L48.9610887,0.576721326 C46.5491522,0.774193948 44.1198793,1.03387406 41.7368369,1.35359164 L41.8755287,2.38580202 C44.2405122,2.06608444 46.6531711,1.80857435 49.0434369,1.61544179" id="Fill-17"></path>
                                <path d="M92.2491722,3.94901844 C89.9000805,3.37974755 87.5105369,2.86979078 85.1419416,2.42927493 L84.9541299,3.45352853 C87.3003322,3.89115101 89.6747064,4.39749107 92.0050169,4.96025187 L92.2491722,3.94901844 Z" id="Fill-21"></path>
                                <path d="M34.7554402,3.53758098 L34.562572,2.51622075 C32.1896426,2.96469337 29.8015438,3.48260692 27.4625649,4.05549452 L27.7124991,5.06889798 C30.0298073,4.49962709 32.3998473,3.98388357 34.7554402,3.53758098" id="Fill-23"></path>
                                <path d="M77.9653652,1.29333718 C75.5736546,0.97940634 73.1422146,0.726236311 70.738224,0.540337176 L70.6602099,1.58050432 C73.0446969,1.76423343 75.4551887,2.01451009 77.8302852,2.32627089 L77.9653652,1.29333718 Z" id="Fill-25"></path>
                                <path d="M20.7563125,6.97382161 L20.4558136,5.97777839 C18.1471736,6.67725101 15.8276984,7.44978127 13.5602325,8.27294553 L13.9141854,9.25235187 C16.1643148,8.43569769 18.4686207,7.66823084 20.7563125,6.97382161" id="Fill-31"></path>
                                <path d="M7.217468,11.8881412 L6.81078329,10.9289885 C4.59532682,11.8693343 2.37481388,12.8841844 0.212089176,13.9431585 L0.667893882,14.8784409 C2.81400447,13.8288703 5.01862565,12.8219769 7.217468,11.8881412" id="Fill-69"></path>
                                <path d="M57.1032344,31.5825994 L57.1285167,32.3862334 C58.9705167,32.3348761 60.8363544,32.3290893 62.6819661,32.3761066 L62.7007473,31.5739193 C60.8406885,31.5283487 58.9611261,31.5326888 57.1032344,31.5825994" id="Fill-73"></path>
                                <path d="M68.2284087,32.6577764 C70.0718534,32.8009983 71.9297452,32.9926841 73.752964,33.232834 L73.8569828,32.4364334 C72.0200393,32.1962836 70.1455334,32.000981 68.2898087,31.8577591 L68.2284087,32.6577764 Z" id="Fill-75"></path>
                                <path d="M100.803059,39.7297556 L100.49317,40.4690121 C102.192144,41.1836749 103.896174,41.9569285 105.561198,42.7670726 L105.910817,42.0430063 C104.232791,41.2285222 102.514313,40.4502052 100.803059,39.7297556" id="Fill-83"></path>
                                <path d="M110.886023,44.6257746 L110.498841,45.3295873 C112.106799,46.2207458 113.719813,47.1704951 115.292376,48.1513481 L115.715674,47.4714058 C114.132277,46.4818726 112.50915,45.5256133 110.886023,44.6257746" id="Fill-89"></path>
                                <path d="M84.8559621,34.4816133 C83.0508021,34.0447141 81.2073574,33.6519389 79.3834162,33.3134144 L79.2375009,34.1025816 C81.0469951,34.4374893 82.8752704,34.8280945 84.667428,35.2621003 L84.8559621,34.4816133 Z" id="Fill-97"></path>
                                <path d="M40.5751489,34.1686951 L40.4270666,33.3773579 C38.6031254,33.7231159 36.7640148,34.1224012 34.9566878,34.565087 L35.1466666,35.3462974 C36.9395466,34.9050582 38.7656548,34.5079429 40.5751489,34.1686951" id="Fill-99"></path>
                                <path d="M29.7927311,36.8141772 L29.5623005,36.045987 C27.7802558,36.5863242 25.9917099,37.1801888 24.2493946,37.8131138 L24.5209993,38.5675605 C26.2524793,37.9389755 28.0244111,37.3480043 29.7927311,36.8141772" id="Fill-101"></path>
                                <path d="M90.0302485,36.7120412 C91.7920673,37.2400816 93.5676108,37.8245427 95.3063144,38.4473409 L95.5779191,37.6936176 C93.8247685,37.0635859 92.0340555,36.4747847 90.2599567,35.9431277 L90.0302485,36.7120412 Z" id="Fill-103"></path>
                                <path d="M4.62891624,48.3021651 C6.18486447,47.3234821 7.78921035,46.3701161 9.40294682,45.4717242 L9.01143153,44.7715282 C7.38902682,45.6771536 5.77023388,46.6370297 4.20200565,47.6236695 L4.62891624,48.3021651 Z" id="Fill-105"></path>
                                <path d="M14.3186308,42.9011081 C15.9692073,42.0938573 17.6667367,41.3184337 19.3613767,40.5965375 L19.0485979,39.859451 C17.3395108,40.5842406 15.6304238,41.365451 13.9682896,42.1799352 L14.3186308,42.9011081 Z" id="Fill-107"></path>
                                <path d="M46.0562908,33.2789833 C47.8823991,33.03377 49.7410132,32.8348507 51.5786791,32.6858421 L51.5143896,31.8858248 C49.6622767,32.0362801 47.7906602,32.2373695 45.9515496,32.4854761 L46.0562908,33.2789833 Z" id="Fill-109"></path>
                            </g>
                            <path d="M103.389163,188.23264 C111.98733,188.192856 118.943589,185.294421 118.926975,181.768124 L118.945756,186.336758 C118.966704,189.863055 112.009,192.75932 103.412278,192.801274 C94.8097769,192.845398 87.8253464,190.021467 87.8072875,186.493723 L87.7820052,181.930876 C87.8029534,185.452833 94.7888287,188.277487 103.389163,188.23264" id="Fill-207" fill="#FBBC36"></path>
                            <path d="M103.389163,188.23264 C94.7888287,188.277487 87.8029534,185.452833 87.7820052,181.930876 C87.7668358,178.405303 94.7230946,175.506867 103.325596,175.464914 C111.922318,175.420066 118.903859,178.24472 118.926975,181.768124 C118.943589,185.294421 111.98733,188.192856 103.389163,188.23264" id="Fill-209" fill="#FFD633"></path>
                            <path d="M103.379628,186.561645 C97.0287007,186.597089 91.8682113,184.512415 91.8544866,181.907657 C91.8429289,179.299282 96.9810254,177.163974 103.333397,177.131423 C109.677823,177.099596 114.838312,179.183547 114.857094,181.790475 C114.867929,184.39234 109.725498,186.530541 103.379628,186.561645" id="Fill-211" fill="#FFDF33"></path>
                            <path d="M103.389163,182.808653 C111.985163,182.765976 118.939255,179.872604 118.921196,176.34486 L118.945756,180.913494 C118.966704,184.436174 112.007556,187.336056 103.409389,187.379457 C94.8097769,187.419241 87.8253464,184.59531 87.8072875,181.071183 L87.7820052,176.503272 C87.8029534,180.030293 94.7823275,182.852053 103.389163,182.808653" id="Fill-213" fill="#FBBC36"></path>
                            <path d="M103.389163,182.808653 C94.7823275,182.852053 87.8029534,180.030293 87.7820052,176.503272 C87.7668358,172.974805 94.7202052,170.07854 103.321262,170.036586 C111.922318,169.995356 118.903859,172.82218 118.921196,176.34486 C118.939255,179.872604 111.985163,182.765976 103.389163,182.808653" id="Fill-215" fill="#FFD633"></path>
                            <path d="M103.378544,181.140841 C97.0247278,181.173391 91.8678501,179.086547 91.8555701,176.483959 C91.8425678,173.877754 96.9799419,171.738829 103.332314,171.708449 C109.677462,171.674452 114.837951,173.763466 114.853843,176.367501 C114.865401,178.969365 109.725137,181.107567 103.378544,181.140841" id="Fill-217" fill="#FFDF33"></path>
                            <path d="M103.389163,177.490925 C111.985163,177.450418 118.943589,174.557046 118.926975,171.029302 L118.945756,175.595043 C118.966704,179.126403 112.007556,182.019052 103.409389,182.061005 C94.8097769,182.103683 87.8253464,179.281199 87.8072875,175.754178 L87.7820052,171.187714 C87.8029534,174.713288 94.7823275,177.535772 103.389163,177.490925" id="Fill-219" fill="#FBBC36"></path>
                            <path d="M103.389163,177.490925 C94.7823275,177.535772 87.8029534,174.713288 87.7820052,171.187714 C87.7668358,167.659971 94.7216499,164.765152 103.321262,164.725369 C111.922318,164.679798 118.903859,167.504452 118.926975,171.029302 C118.943589,174.557046 111.985163,177.450418 103.389163,177.490925" id="Fill-221" fill="#FFD633"></path>
                            <path d="M103.378544,175.820654 C97.0283395,175.853927 91.8678501,173.769253 91.8555701,171.165942 C91.8425678,168.55829 96.9813866,166.427322 103.333036,166.392602 C109.677462,166.359328 114.837951,168.444002 114.853843,171.050207 C114.865401,173.651348 109.725137,175.790273 103.378544,175.820654" id="Fill-223" fill="#FFDF33"></path>
                            <path d="M103.389163,172.055943 C111.985163,172.009649 118.943589,169.114831 118.926975,165.589257 L118.945756,170.156444 C118.966704,173.688528 112.007556,176.573943 103.409389,176.617344 C94.8097769,176.660744 87.8253464,173.838983 87.8072875,170.31341 L87.7820052,165.744776 C87.8029534,169.268179 94.7823275,172.09428 103.389163,172.055943" id="Fill-225" fill="#FBBC36"></path>
                            <path d="M103.389163,172.055943 C94.7823275,172.09428 87.8029534,169.268179 87.7820052,165.744776 C87.7668358,162.222819 94.7216499,159.323661 103.321262,159.283877 C111.922318,159.240476 118.909638,162.061514 118.926975,165.589257 C118.943589,169.114831 111.985163,172.009649 103.389163,172.055943" id="Fill-227" fill="#FFD633"></path>
                            <path d="M103.378544,170.382561 C97.0283395,170.412942 91.8678501,168.329714 91.8555701,165.724956 C91.8440125,163.121645 96.9813866,160.98706 103.333036,160.952339 C109.677462,160.921236 114.837951,163.00808 114.857455,165.609945 C114.867568,168.213256 109.725137,170.350734 103.378544,170.382561" id="Fill-229" fill="#FFDF33"></path>
                            <path d="M103.389163,166.53944 C111.98733,166.4917 118.943589,163.601221 118.926975,160.075648 L118.945756,164.643559 C118.966704,168.168409 112.009,171.06178 103.409389,171.106628 C94.8097769,171.149305 87.8253464,168.329714 87.8072875,164.803417 L87.7820052,160.23189 C87.8029534,163.756017 94.7888287,166.581394 103.389163,166.53944" id="Fill-231" fill="#FBBC36"></path>
                            <path d="M103.389163,166.53944 C94.7888287,166.581394 87.8029534,163.756017 87.7820052,160.23189 C87.7668358,156.704146 94.7230946,153.812221 103.321262,153.767374 C111.922318,153.723973 118.909638,156.552244 118.926975,160.075648 C118.943589,163.601221 111.98733,166.4917 103.389163,166.53944" id="Fill-233" fill="#FFD633"></path>
                            <path d="M103.378544,164.869893 C97.0283395,164.90389 91.8678501,162.814152 91.8555701,160.210841 C91.8440125,157.609699 96.9813866,155.468604 103.333036,155.438224 C109.677462,155.405673 114.837951,157.493965 114.857455,160.095829 C114.865401,162.699864 109.727304,164.837342 103.378544,164.869893" id="Fill-235" fill="#FFDF33"></path>
                            <path d="M103.389163,161.098816 C111.985163,161.053969 118.943589,158.163491 118.926975,154.636471 L118.945756,159.205828 C118.966704,162.729231 112.007556,165.624773 103.409389,165.66962 C94.8097769,165.710851 87.8253464,162.89126 87.8072875,159.364963 L87.7820052,154.797053 C87.8029534,158.32118 94.7888287,161.143664 103.389163,161.098816" id="Fill-237" fill="#FBBC36"></path>
                            <path d="M103.389163,161.098816 C94.7888287,161.143664 87.8029534,158.32118 87.7820052,154.797053 C87.7668358,151.271479 94.7230946,148.371597 103.321262,148.329644 C111.922318,148.288413 118.903859,151.115237 118.926975,154.636471 C118.943589,158.163491 111.985163,161.053969 103.389163,161.098816" id="Fill-239" fill="#FFD633"></path>
                            <path d="M103.378544,159.43209 C97.0283395,159.466087 91.8678501,157.377072 91.8555701,154.775931 C91.8425678,152.171897 96.9813866,150.032971 103.333036,150.001144 C109.677462,149.967147 114.837951,152.057608 114.857455,154.66092 C114.865401,157.259891 109.725137,159.402433 103.378544,159.43209" id="Fill-241" fill="#FFDF33"></path>
                            <path d="M103.389163,155.586871 C111.985163,155.54564 118.943589,152.650822 118.926975,149.125248 L118.945756,153.692436 C118.966704,157.219456 112.007556,160.109211 103.409389,160.154058 C94.8097769,160.196735 87.8253464,157.375698 87.8072875,153.849401 L87.7820052,149.280767 C87.8029534,152.810681 94.7823275,155.633165 103.389163,155.586871" id="Fill-243" fill="#FBBC36"></path>
                            <path d="M103.389163,155.586871 C94.7823275,155.633165 87.8029534,152.810681 87.7820052,149.280767 C87.7668358,145.755917 94.7216499,142.858929 103.321262,142.815528 C111.922318,142.772127 118.903859,145.596058 118.926975,149.125248 C118.943589,152.650822 111.985163,155.54564 103.389163,155.586871" id="Fill-245" fill="#FFD633"></path>
                            <path d="M103.378544,153.917612 C97.0283395,153.947993 91.8678501,151.864042 91.8555701,149.262177 C91.8425678,146.655973 96.9813866,144.515601 103.333036,144.48522 C109.677462,144.456287 114.837951,146.540961 114.853843,149.144272 C114.865401,151.746137 109.725137,153.885062 103.378544,153.917612" id="Fill-247" fill="#FFDF33"></path>
                            <path d="M103.372188,150.146609 C111.976856,150.103208 118.930948,147.213453 118.912889,143.686433 L118.933837,148.252897 C118.951896,151.77847 111.999971,154.671842 103.398915,154.716689 C94.8021922,154.76009 87.8177616,151.936882 87.7968134,148.406246 L87.7729758,143.843398 C87.7881452,147.368972 94.7740205,150.196519 103.372188,150.146609" id="Fill-249" fill="#FBBC36"></path>
                            <path d="M103.372188,150.146609 C94.7740205,150.196519 87.7881452,147.368972 87.7729758,143.843398 C87.7563616,140.314931 94.7147875,137.424453 103.312232,137.375989 C111.911122,137.336205 118.89483,140.161583 118.912889,143.686433 C118.930948,147.213453 111.976856,150.103208 103.372188,150.146609" id="Fill-251" fill="#FFD633"></path>
                            <path d="M103.36482,148.478073 C97.0146148,148.509901 91.8555701,146.429566 91.8440125,143.820468 C91.8331772,141.218604 96.9662172,139.077509 103.316422,139.048575 C109.668071,139.016024 114.830005,141.101422 114.837951,143.704733 C114.857455,146.310215 109.717914,148.448416 103.36482,148.478073" id="Fill-253" fill="#FFDF33"></path>
                            <path d="M103.36482,144.634301 C111.964431,144.592348 118.916356,141.697529 118.89902,138.170509 L118.926469,142.739143 C118.943805,146.26327 111.98538,149.160258 103.38938,149.202212 C94.7825442,149.245613 87.8031701,146.425299 87.7814995,142.898278 L87.7583842,138.328198 C87.7749984,141.858111 94.7652078,144.676979 103.36482,144.634301" id="Fill-255" fill="#FBBC36"></path>
                            <path d="M103.36482,144.634301 C94.7652078,144.676979 87.7749984,141.858111 87.7583842,138.328198 C87.7396031,134.801178 94.6973066,131.906359 103.296196,131.866575 C111.895808,131.820281 118.884572,134.644935 118.89902,138.170509 C118.916356,141.697529 111.964431,144.592348 103.36482,144.634301" id="Fill-257" fill="#FFD633"></path>
                            <path d="M103.35319,142.964392 C97.0000955,142.995496 91.8439402,140.912268 91.8331049,138.30751 C91.8172132,135.701305 96.956032,133.568167 103.304792,133.533447 C109.658608,133.503066 114.812597,135.586294 114.829933,138.192499 C114.839324,140.794363 109.704117,142.931841 103.35319,142.964392" id="Fill-259" fill="#FFDF33"></path>
                            <g id="Group-267" transform="translate(87.475294, 138.158501)" fill="#FFFFFF">
                                <path d="M6.13458235,5.16965965 L6.13458235,53.3225991 C7.35463647,53.7240545 8.74083176,54.0452187 10.2303235,54.2774118 L10.2303235,6.11868559 C8.74083176,5.88649251 7.35535882,5.56749827 6.13458235,5.16965965" id="Fill-261"></path>
                                <path d="M0.283090118,0.22741902 L0.306205412,4.79605303 C0.306205412,4.93131816 0.337266588,5.06947666 0.358937176,5.2083585 C0.327876,5.38051412 0.296092471,5.55990317 0.298259529,5.74146225 L0.321374824,10.3072029 C0.321374824,10.4301712 0.349546588,10.5487994 0.365438353,10.6753844 C0.337266588,10.8439233 0.306205412,11.0073988 0.306205412,11.1795545 L0.331487765,15.7460184 C0.331487765,15.8740501 0.358937176,15.9905084 0.376996,16.1134767 C0.337266588,16.3066092 0.306205412,16.4968484 0.306205412,16.6907043 L0.331487765,21.2615084 C0.331487765,21.3721798 0.358937176,21.4792346 0.373384235,21.5862893 C0.337266588,21.7664017 0.306205412,21.9450674 0.306205412,22.1295199 L0.331487765,26.7003239 C0.331487765,26.8203988 0.361104235,26.9368571 0.379163059,27.0583787 C0.337266588,27.2529579 0.306205412,27.4468138 0.306205412,27.6442865 L0.331487765,32.2093037 C0.331487765,32.3185285 0.358937176,32.4205199 0.373384235,32.5311914 C0.337266588,32.7127504 0.306205412,32.8972029 0.306205412,33.0823787 L0.331487765,37.6502893 C0.331487765,37.7414305 0.358214824,37.8282317 0.365438353,37.9164795 C0.337266588,38.075615 0.306205412,38.2361971 0.306205412,38.3975026 L0.331487765,42.9712 C0.331487765,43.0768081 0.358214824,43.1802461 0.367605412,43.2880242 C0.337266588,43.4623499 0.306205412,43.6424622 0.306205412,43.8240213 L0.331487765,48.391932 C0.344490118,50.3963153 2.60328776,52.1699522 6.13487129,53.3222375 L6.13487129,5.17002133 C2.57945012,4.02207608 0.291758353,2.23469568 0.283090118,0.22741902" id="Fill-263"></path>
                                <path d="M10.2306125,6.11904726 L10.2306125,54.2777735 C11.3271442,54.4499291 12.4814642,54.5714507 13.6769584,54.6343816 L13.6769584,6.47276196 C12.4814642,6.40549107 11.3271442,6.29120288 10.2306125,6.11904726" id="Fill-265"></path>
                            </g>
                            <path d="M25.9209995,188.789976 C34.5206113,188.745128 41.4754254,185.85248 41.4588113,182.326183 L41.4775925,186.896264 C41.4985407,190.419667 34.5415595,193.316656 25.9441148,193.35861 C17.3437807,193.40201 10.3571831,190.580973 10.3369572,187.048889 L10.318176,182.480255 C10.3319007,186.008722 17.3213878,188.834099 25.9209995,188.789976" id="Fill-695" fill="#FBBC36"></path>
                            <path d="M25.9209995,188.789976 C17.3213878,188.834099 10.3319007,186.008722 10.318176,182.480255 C10.2979501,178.954682 17.2549313,176.06565 25.8574325,176.018633 C34.4541548,175.977402 41.4385854,178.80495 41.4588113,182.326183 C41.4754254,185.85248 34.5206113,188.745128 25.9209995,188.789976" id="Fill-697" fill="#FFD633"></path>
                            <path d="M25.9136315,187.121151 C19.5605374,187.150808 14.3993256,185.06324 14.3892127,182.466439 C14.375488,179.857341 19.5164739,177.724926 25.8637892,177.688036 C32.2125492,177.653315 37.3708715,179.73799 37.3867633,182.347811 C37.4019327,184.953292 32.2616692,187.086431 25.9136315,187.121151" id="Fill-699" fill="#FFDF33"></path>
                            <path d="M25.9189047,183.362806 C34.5170718,183.322299 41.4754976,180.428927 41.4567165,176.90263 L41.4776647,181.469817 C41.4986129,184.996837 34.5387424,187.888763 25.9376859,187.935056 C17.3438529,187.978457 10.3572553,185.153803 10.3370294,181.627506 L10.3182482,177.056702 C10.3305282,180.586616 17.3185706,183.408376 25.9189047,183.362806" id="Fill-701" fill="#FBBC36"></path>
                            <path d="M25.9189047,183.362806 C17.3185706,183.408376 10.3305282,180.586616 10.3182482,177.056702 C10.2980224,173.531129 17.2528365,170.63414 25.8531706,170.591463 C34.45206,170.552402 41.4386576,173.376333 41.4567165,176.90263 C41.4754976,180.428927 34.5170718,183.322299 25.9189047,183.362806" id="Fill-703" fill="#FFD633"></path>
                            <path d="M25.9104532,181.693909 C19.5573591,181.727183 14.3990367,179.641785 14.3896461,177.039197 C14.3759214,174.432993 19.5132955,172.294067 25.8606108,172.26007 C32.2108155,172.230413 37.3713049,174.317258 37.3850296,176.922739 C37.3973096,179.527497 32.2570461,181.664252 25.9104532,181.693909" id="Fill-705" fill="#FFDF33"></path>
                            <path d="M25.9189047,178.048984 C34.5170718,178.004137 41.4754976,175.115105 41.4588835,171.581575 L41.4819988,176.152379 C41.4986129,179.679399 34.5394647,182.573494 25.9376859,182.616895 C17.3438529,182.661018 10.3572553,179.839981 10.3370294,176.309344 L10.3182482,171.741433 C10.3305282,175.270624 17.3185706,178.091661 25.9189047,178.048984" id="Fill-707" fill="#FBBC36"></path>
                            <path d="M25.9189047,178.048984 C17.3185706,178.091661 10.3305282,175.270624 10.3182482,171.741433 C10.2980224,168.215137 17.2535588,165.322488 25.8546153,165.277641 C34.45206,165.23424 41.4386576,168.058171 41.4588835,171.581575 C41.4754976,175.115105 34.5170718,178.004137 25.9189047,178.048984" id="Fill-709" fill="#FFD633"></path>
                            <path d="M25.9104532,176.376977 C19.5573591,176.410974 14.3990367,174.328469 14.3896461,171.722988 C14.3759214,169.117507 19.5147402,166.979305 25.8642226,166.948925 C32.2108155,166.917098 37.3713049,168.998879 37.3850296,171.607253 C37.3973096,174.211288 32.2570461,176.34515 25.9104532,176.376977" id="Fill-711" fill="#FFDF33"></path>
                            <path d="M25.9189047,172.610819 C34.5170718,172.566695 41.4754976,169.668984 41.4588835,166.14341 L41.4819988,170.711321 C41.4986129,174.242681 34.5394647,177.131713 25.9376859,177.17439 C17.3438529,177.219237 10.3572553,174.397476 10.3370294,170.868286 L10.3182482,166.303269 C10.3319729,169.827396 17.3185706,172.652773 25.9189047,172.610819" id="Fill-713" fill="#FBBC36"></path>
                            <path d="M25.9189047,172.610819 C17.3185706,172.652773 10.3319729,169.827396 10.3182482,166.303269 C10.2987447,162.776249 17.2535588,159.88577 25.8546153,159.840923 C34.45206,159.798246 41.4386576,162.620007 41.4588835,166.14341 C41.4754976,169.668984 34.5170718,172.566695 25.9189047,172.610819" id="Fill-715" fill="#FFD633"></path>
                            <path d="M25.9104532,170.938812 C19.5602485,170.971363 14.4019261,168.886688 14.3896461,166.285547 C14.3766438,163.677172 19.5147402,161.541864 25.8642226,161.511484 C32.2129826,161.476763 37.3713049,163.562884 37.3871967,166.165472 C37.4016438,168.77023 32.2613802,170.908432 25.9104532,170.938812" id="Fill-717" fill="#FFDF33"></path>
                            <path d="M25.9189047,167.093955 C34.5206835,167.050554 41.4754976,164.153566 41.4588835,160.630163 L41.4819988,165.198073 C41.4986129,168.72654 34.5416318,171.618465 25.9376859,171.659696 C17.34602,171.70599 10.3572553,168.885676 10.3370294,165.356485 L10.3182482,160.787851 C10.3319729,164.313425 17.32146,167.137356 25.9189047,167.093955" id="Fill-719" fill="#FBBC36"></path>
                            <path d="M25.9189047,167.093955 C17.32146,167.137356 10.3319729,164.313425 10.3182482,160.787851 C10.2987447,157.264448 17.2550035,154.369629 25.8546153,154.326229 C34.4535047,154.280658 41.4386576,157.103866 41.4588835,160.630163 C41.4754976,164.153566 34.5206835,167.050554 25.9189047,167.093955" id="Fill-721" fill="#FFD633"></path>
                            <path d="M25.9104532,165.429326 C19.5602485,165.46043 14.3990367,163.369969 14.3896461,160.766657 C14.3766438,158.167686 19.5147402,156.025868 25.8642226,155.994041 C32.2129826,155.965107 37.3713049,158.049058 37.3871967,160.652369 C37.3973096,163.257127 32.2613802,165.396776 25.9104532,165.429326" id="Fill-723" fill="#FFDF33"></path>
                            <path d="M25.9189047,161.657888 C34.5170718,161.610871 41.4754976,158.720393 41.4588835,155.193372 L41.4819988,159.7649 C41.4986129,163.28758 34.5394647,166.179505 25.9376859,166.222905 C17.3438529,166.264136 10.3572553,163.445269 10.3370294,159.917525 L10.3182482,155.351061 C10.3319729,158.878081 17.32146,161.702735 25.9189047,161.657888" id="Fill-725" fill="#FBBC36"></path>
                            <path d="M25.9189047,161.657888 C17.32146,161.702735 10.3319729,158.878081 10.3182482,155.351061 C10.2987447,151.824764 17.2550035,148.928499 25.8546153,148.885822 C34.45206,148.844591 41.4386576,151.667076 41.4588835,155.193372 C41.4754976,158.720393 34.5170718,161.610871 25.9189047,161.657888" id="Fill-727" fill="#FFD633"></path>
                            <path d="M25.9104532,159.987979 C19.5602485,160.022699 14.3990367,157.933685 14.3896461,155.330373 C14.3759214,152.727786 19.5147402,150.591031 25.8642226,150.559203 C32.2129826,150.525206 37.3713049,152.609881 37.3871967,155.213915 C37.3973096,157.814333 32.2613802,159.954705 25.9104532,159.987979" id="Fill-729" fill="#FFDF33"></path>
                            <path d="M25.9189047,156.141024 C34.5170718,156.102687 41.4754976,153.205698 41.4588835,149.682295 L41.4819988,154.251652 C41.4986129,157.774332 34.5387424,160.669874 25.9376859,160.709658 C17.3438529,160.753059 10.3572553,157.932021 10.3370294,154.407171 L10.3182482,149.837814 C10.3305282,153.36411 17.3185706,156.185148 25.9189047,156.141024" id="Fill-731" fill="#FBBC36"></path>
                            <path d="M25.9189047,156.141024 C17.3185706,156.185148 10.3305282,153.36411 10.3182482,149.837814 C10.2980224,146.3079 17.2535588,143.417422 25.8546153,143.373298 C34.45206,143.32845 41.4386576,146.153105 41.4588835,149.682295 C41.4754976,153.205698 34.5170718,156.102687 25.9189047,156.141024" id="Fill-733" fill="#FFD633"></path>
                            <path d="M25.9104532,154.474659 C19.5573591,154.505039 14.3990367,152.419641 14.3896461,149.8185 C14.3759214,147.214466 19.5147402,145.079881 25.8642226,145.04299 C32.2108155,145.011163 37.3713049,147.096561 37.3850296,149.702765 C37.3973096,152.30246 32.2570461,154.440662 25.9104532,154.474659" id="Fill-735" fill="#FFDF33"></path>
                            <path d="M25.9072748,150.704668 C34.5090536,150.65982 41.4609784,147.763555 41.4458089,144.241599 L41.4682019,148.807339 C41.4862607,152.333636 34.5321689,155.228454 25.9303901,155.274748 C17.3307784,155.314532 10.3492372,152.489155 10.3239548,148.964305 L10.305896,144.398564 C10.3217878,147.927754 17.3098301,150.748068 25.9072748,150.704668" id="Fill-737" fill="#FBBC36"></path>
                            <path d="M25.9072748,150.704668 C17.3098301,150.748068 10.3217878,147.927754 10.305896,144.398564 C10.2892819,140.874437 17.2462631,137.981789 25.8429854,137.937665 C34.4433195,137.890648 41.4270278,140.717472 41.4458089,144.241599 C41.4609784,147.763555 34.5090536,150.65982 25.9072748,150.704668" id="Fill-739" fill="#FFD633"></path>
                            <path d="M25.8977398,149.032227 C19.5468127,149.066224 14.3892127,146.979379 14.3769327,144.376068 C14.3639304,141.772757 19.4984151,139.636725 25.8493421,139.604898 C32.2031586,139.571624 37.363648,141.660639 37.3708715,144.263227 C37.3867633,146.866538 32.2493892,149.000399 25.8977398,149.032227" id="Fill-741" fill="#FFDF33"></path>
                            <path d="M25.8977398,145.191637 C34.4951845,145.148237 41.4499986,142.252695 41.4333845,138.727121 L41.4586668,143.295032 C41.4752809,146.823499 34.5175774,149.714701 25.918688,149.760271 C17.3183539,149.801502 10.3303115,146.979018 10.3151421,143.455614 L10.2927492,138.88698 C10.3093633,142.41183 17.2974056,145.233591 25.8977398,145.191637" id="Fill-743" fill="#FBBC36"></path>
                            <path d="M25.8977398,145.191637 C17.2974056,145.233591 10.3093633,142.41183 10.2927492,138.88698 C10.2725233,135.36213 17.2316715,132.464418 25.8334504,132.423188 C34.4308951,132.37834 41.4153256,135.200101 41.4333845,138.727121 C41.4499986,142.252695 34.4951845,145.148237 25.8977398,145.191637" id="Fill-745" fill="#FFD633"></path>
                            <path d="M25.8871934,143.520281 C19.5340993,143.552108 14.3801111,141.467434 14.3642193,138.863399 C14.3504946,136.257918 19.4878687,134.123333 25.8387958,134.088612 C32.1875558,134.058232 37.3466005,136.14797 37.3639369,138.746941 C37.3762169,141.350252 32.2359534,143.487731 25.8871934,143.520281" id="Fill-747" fill="#FFDF33"></path>
                            <g id="Group-755" transform="translate(10.183529, 138.881844)" fill="#FFFFFF">
                                <path d="M5.958256,5.00292911 L5.958256,53.1580386 C7.18119953,53.5594939 8.561616,53.8813816 10.0532748,54.1135746 L10.0532748,5.94906167 C8.56667247,5.72120865 7.18119953,5.40004438 5.958256,5.00292911" id="Fill-749"></path>
                                <path d="M0.109219765,0.0585907781 L0.131612706,4.62794813 C0.135224471,4.76827666 0.160506824,4.90571182 0.182899765,5.03808357 C0.146782118,5.21602594 0.118610353,5.39179827 0.122944471,5.57118732 L0.140280941,10.1398213 C0.144615059,10.2649597 0.173509176,10.3857579 0.189400941,10.5058329 C0.160506824,10.6743718 0.131612706,10.841464 0.135224471,11.0121729 L0.154005647,15.5829769 C0.154005647,15.7037752 0.182899765,15.8224035 0.198791529,15.9432017 C0.160506824,16.1370576 0.135224471,16.3301902 0.135224471,16.5225994 L0.154005647,21.0926801 C0.154005647,21.2047983 0.182899765,21.3089597 0.194457412,21.4160144 C0.160506824,21.5982968 0.135224471,21.7762392 0.135224471,21.9621383 L0.154005647,26.5336657 C0.154005647,26.6537406 0.187233882,26.7730922 0.201680941,26.8917205 C0.160506824,27.0877464 0.135224471,27.2765389 0.135224471,27.4769049 L0.154005647,32.0448156 C0.154005647,32.1497003 0.182899765,32.2553084 0.194457412,32.3616398 C0.160506824,32.5453689 0.131612706,32.726928 0.135224471,32.9157205 L0.154005647,37.4836311 C0.154005647,37.571879 0.177843294,37.6622968 0.188678588,37.751268 C0.160506824,37.9082334 0.131612706,38.0695389 0.135224471,38.2337378 L0.154005647,42.8002017 C0.154005647,42.9101499 0.182899765,43.0135879 0.194457412,43.119196 C0.160506824,43.298585 0.131612706,43.4786974 0.135224471,43.6588098 L0.154005647,48.2238271 C0.167008,50.225317 2.42869506,52.0040173 5.95811153,53.1584726 L5.95811153,5.00263977 C2.40341271,3.85324784 0.118610353,2.07237752 0.109219765,0.0585907781" id="Fill-751"></path>
                                <path d="M10.0532026,5.94913401 L10.0532026,54.113647 C11.1519014,54.2843559 12.3026096,54.4029841 13.5024379,54.4709784 L13.5024379,6.30501873 C12.3026096,6.23991787 11.1519014,6.12201297 10.0532026,5.94913401" id="Fill-753"></path>
                            </g>
                            <polygon id="Fill-878" fill="#D3F0F6" points="88.7922158 101.661076 88.7922158 101.661076 126.000616 68.0950703 126.262108 1.08675043 0.240413412 1.08675043 0.240413412 67.168468 40.9103287 101.661076 3.51194988 133.410768 3.51194988 199.305139 129.272152 199.782546 129.272152 134.327243"></polygon>
                            <polygon id="Fill-880" fill="#E2F5F9" points="82.9840647 101.685814 122.548058 64.4965839 122.548058 39.7640421 122.548058 19.8381141 122.548058 8.91635908 122.548058 1.0868951 3.17201059 1.0868951 3.17201059 8.91635908 3.17201059 19.8381141 3.17201059 39.7640421 3.17201059 64.4965839 46.2516953 101.685814 6.62485765 135.894149 6.62485765 160.62669 6.62485765 180.552618 6.62485765 191.475097 6.62485765 199.305284 126.000182 199.305284 126.000182 191.475097 126.000182 180.552618 126.000182 160.62669 126.000182 135.894149"></polygon>
                        </g>
                        <g id="Group-985" transform="translate(6.795294, 181.875141)">
                            <g id="Group-885" transform="translate(0.000000, 38.337176)">
                                <mask id="mask-2" fill="white">
                                    <use xlink:href="#path-1"></use>
                                </mask>
                                <g id="Clip-884"></g>
                                <path d="M6.38820047,6.15080202 C-0.978354824,6.15080202 -6.95149129,3.67190576 -6.95149129,0.609995101 L-6.95149129,4.57319107 C-6.95149129,7.63437839 -0.978354824,10.113998 6.38820047,10.113998 C13.7562005,10.113998 19.7278922,7.63437839 19.7278922,4.57319107 L19.7278922,0.609995101 C19.7278922,3.67190576 13.7562005,6.15080202 6.38820047,6.15080202" id="Fill-883" fill="#134F78" mask="url(#mask-2)"></path>
                            </g>
                            <g id="Group-888" transform="translate(0.000000, 33.273775)">
                                <mask id="mask-4" fill="white">
                                    <use xlink:href="#path-3"></use>
                                </mask>
                                <g id="Clip-887"></g>
                                <path d="M6.38820047,11.2142026 C13.7562005,11.2142026 19.7278922,8.73530634 19.7278922,5.67339568 C19.7278922,2.61510173 13.7562005,0.135482133 6.38820047,0.135482133 C-0.978354824,0.135482133 -6.95149129,2.61510173 -6.95149129,5.67339568 C-6.95149129,8.73530634 -0.978354824,11.2142026 6.38820047,11.2142026" id="Fill-886" fill="#0071A4" mask="url(#mask-4)"></path>
                            </g>
                            <g id="Group-891" transform="translate(0.000000, 34.720461)">
                                <mask id="mask-6" fill="white">
                                    <use xlink:href="#path-5"></use>
                                </mask>
                                <g id="Clip-890"></g>
                                <path d="M6.38820047,8.31945648 C11.8282405,8.31945648 16.2396499,6.48795216 16.2396499,4.22678213 C16.2396499,1.96850548 11.8282405,0.13627781 6.38820047,0.13627781 C0.948160471,0.13627781 -3.46108188,1.96850548 -3.46108188,4.22678213 C-3.46108188,6.48795216 0.948160471,8.31945648 6.38820047,8.31945648" id="Fill-889" fill="#0090D1" mask="url(#mask-6)"></path>
                            </g>
                            <g id="Group-894" transform="translate(19.503529, 39.060519)">
                                <mask id="mask-8" fill="white">
                                    <use xlink:href="#path-7"></use>
                                </mask>
                                <g id="Clip-893"></g>
                                <path d="M13.5634045,5.55570778 C6.19468212,5.55570778 0.224435059,3.07536484 0.224435059,0.0170708934 L0.224435059,3.97954352 C0.224435059,7.03566744 6.19468212,9.51745706 13.5634045,9.51745706 C20.9292374,9.51745706 26.9009292,7.03566744 26.9009292,3.97954352 L26.9009292,0.0170708934 C26.9009292,3.07536484 20.9292374,5.55570778 13.5634045,5.55570778" id="Fill-892" fill="#134F78" mask="url(#mask-8)"></path>
                            </g>
                            <g id="Group-897" transform="translate(19.503529, 33.273775)">
                                <mask id="mask-10" fill="white">
                                    <use xlink:href="#path-9"></use>
                                </mask>
                                <g id="Clip-896"></g>
                                <path d="M13.5634045,11.3424513 C20.9292374,11.3424513 26.9009292,8.86210836 26.9009292,5.80381441 C26.9009292,2.74407378 20.9292374,0.26228415 13.5634045,0.26228415 C6.19468212,0.26228415 0.224435059,2.74407378 0.224435059,5.80381441 C0.224435059,8.86210836 6.19468212,11.3424513 13.5634045,11.3424513" id="Fill-895" fill="#0071A4" mask="url(#mask-10)"></path>
                            </g>
                            <path d="M33.0669339,43.1670813 C38.5055292,43.1670813 42.9162162,41.3370236 42.9162162,39.0773003 C42.9162162,36.8168536 38.5055292,34.9875193 33.0669339,34.9875193 C27.6247268,34.9875193 23.2133174,36.8168536 23.2133174,39.0773003 C23.2133174,41.3370236 27.6247268,43.1670813 33.0669339,43.1670813" id="Fill-898" fill="#0090D1"></path>
                            <g id="Group-902" transform="translate(46.230588, 39.060519)">
                                <mask id="mask-12" fill="white">
                                    <use xlink:href="#path-11"></use>
                                </mask>
                                <g id="Clip-901"></g>
                                <path d="M13.5119007,5.55570778 C6.14390071,5.55570778 0.174376,3.07536484 0.174376,0.0170708934 L0.174376,3.97954352 C0.174376,7.03566744 6.14390071,9.51745706 13.5119007,9.51745706 C20.878456,9.51745706 26.8508701,7.03566744 26.8508701,3.97954352 L26.8508701,0.0170708934 C26.8508701,3.07536484 20.878456,5.55570778 13.5119007,5.55570778" id="Fill-900" fill="#134F78" mask="url(#mask-12)"></path>
                            </g>
                            <g id="Group-905" transform="translate(46.230588, 33.273775)">
                                <mask id="mask-14" fill="white">
                                    <use xlink:href="#path-13"></use>
                                </mask>
                                <g id="Clip-904"></g>
                                <path d="M13.5119007,11.3424513 C20.878456,11.3424513 26.8508701,8.86210836 26.8508701,5.80381441 C26.8508701,2.74407378 20.878456,0.26228415 13.5119007,0.26228415 C6.14390071,0.26228415 0.174376,2.74407378 0.174376,5.80381441 C0.174376,8.86210836 6.14390071,11.3424513 13.5119007,11.3424513" id="Fill-903" fill="#0071A4" mask="url(#mask-14)"></path>
                            </g>
                            <path d="M59.7424889,43.1670813 C65.1825289,43.1670813 69.5896042,41.3370236 69.5896042,39.0773003 C69.5896042,36.8168536 65.1825289,34.9875193 59.7424889,34.9875193 C54.3017266,34.9875193 49.8932066,36.8168536 49.8932066,39.0773003 C49.8932066,41.3370236 54.3017266,43.1670813 59.7424889,43.1670813" id="Fill-906" fill="#0090D1"></path>
                            <g id="Group-910" transform="translate(72.957647, 39.060519)">
                                <mask id="mask-16" fill="white">
                                    <use xlink:href="#path-15"></use>
                                </mask>
                                <g id="Clip-909"></g>
                                <path d="M13.4614805,5.68496916 C6.09709224,5.68496916 0.123955765,3.20317954 0.123955765,0.141268876 L0.123955765,4.10663487 C0.123955765,7.1663755 6.09709224,9.64671844 13.4614805,9.64671844 C20.8294805,9.64671844 26.7982828,7.1663755 26.7982828,4.10663487 L26.7982828,0.141268876 C26.7982828,3.20317954 20.8294805,5.68496916 13.4614805,5.68496916" id="Fill-908" fill="#134F78" mask="url(#mask-16)"></path>
                            </g>
                            <g id="Group-913" transform="translate(72.957647, 33.273775)">
                                <mask id="mask-18" fill="white">
                                    <use xlink:href="#path-17"></use>
                                </mask>
                                <g id="Clip-912"></g>
                                <path d="M13.4614805,11.4717127 C20.8294805,11.4717127 26.7982828,8.98992305 26.7982828,5.92801239 C26.7982828,2.86971844 20.8294805,0.389375504 13.4614805,0.389375504 C6.09709224,0.389375504 0.123955765,2.86971844 0.123955765,5.92801239 C0.123955765,8.98992305 6.09709224,11.4717127 13.4614805,11.4717127" id="Fill-911" fill="#0071A4" mask="url(#mask-18)"></path>
                            </g>
                            <path d="M86.4191275,43.294896 C91.8591675,43.294896 96.2691322,41.464115 96.2691322,39.2022216 C96.2691322,36.9453916 91.8591675,35.1138873 86.4191275,35.1138873 C80.9790875,35.1138873 76.5691228,36.9453916 76.5691228,39.2022216 C76.5691228,41.464115 80.9790875,43.294896 86.4191275,43.294896" id="Fill-914" fill="#0090D1"></path>
                            <path d="M19.7281089,36.9674536 C12.3593866,36.9674536 6.38841718,34.485664 6.38841718,31.4266467 L6.38841718,35.3891193 C6.38841718,38.4495833 12.3593866,40.9299262 19.7281089,40.9299262 C27.0924972,40.9299262 33.0670784,38.4495833 33.0670784,35.3891193 L33.0670784,31.4266467 C33.0670784,34.485664 27.0924972,36.9674536 19.7281089,36.9674536" id="Fill-916" fill="#134F78"></path>
                            <path d="M19.7281089,36.9674536 C27.0924972,36.9674536 33.0670784,34.485664 33.0670784,31.4266467 C33.0670784,28.364736 27.0924972,25.8865631 19.7281089,25.8865631 C12.3593866,25.8865631 6.38841718,28.364736 6.38841718,31.4266467 C6.38841718,34.485664 12.3593866,36.9674536 19.7281089,36.9674536" id="Fill-918" fill="#0071A4"></path>
                            <path d="M19.7281089,35.519321 C25.1667042,35.519321 29.5781136,33.6856467 29.5781136,31.4266467 C29.5781136,29.16837 25.1667042,27.3361424 19.7281089,27.3361424 C14.2873466,27.3361424 9.87665953,29.16837 9.87665953,31.4266467 C9.87665953,33.6856467 14.2873466,35.519321 19.7281089,35.519321" id="Fill-920" fill="#0090D1"></path>
                            <path d="M46.4046753,37.0914346 C39.0366753,37.0914346 33.0671506,34.613985 33.0671506,31.5564144 L33.0671506,35.5196104 C33.0671506,38.5764576 39.0366753,41.0589706 46.4046753,41.0589706 C53.7683412,41.0589706 59.7422,38.5764576 59.7422,35.5196104 L59.7422,31.5564144 C59.7422,34.613985 53.7683412,37.0914346 46.4046753,37.0914346" id="Fill-922" fill="#134F78"></path>
                            <path d="M46.4046753,37.0914346 C53.7683412,37.0914346 59.7422,34.613985 59.7422,31.5564144 C59.7422,28.4945037 53.7683412,26.0148841 46.4046753,26.0148841 C39.0366753,26.0148841 33.0671506,28.4945037 33.0671506,31.5564144 C33.0671506,34.613985 39.0366753,37.0914346 46.4046753,37.0914346" id="Fill-924" fill="#0071A4"></path>
                            <path d="M46.4046753,35.6479314 C51.8432706,35.6479314 56.2539576,33.8135337 56.2539576,31.5559804 C56.2539576,29.2955337 51.8432706,27.4640294 46.4046753,27.4640294 C40.9646353,27.4640294 36.5546706,29.2955337 36.5546706,31.5559804 C36.5546706,33.8135337 40.9646353,35.6479314 46.4046753,35.6479314" id="Fill-926" fill="#0090D1"></path>
                            <path d="M73.0813139,37.0914346 C65.7147586,37.0914346 59.7423445,34.613985 59.7423445,31.5564144 L59.7423445,35.5196104 C59.7423445,38.5764576 65.7147586,41.0589706 73.0813139,41.0589706 C80.4457021,41.0589706 86.4188386,38.5764576 86.4188386,35.5196104 L86.4188386,31.5564144 C86.4188386,34.613985 80.4457021,37.0914346 73.0813139,37.0914346" id="Fill-928" fill="#134F78"></path>
                            <path d="M73.0813139,37.0914346 C80.4457021,37.0914346 86.4188386,34.613985 86.4188386,31.5564144 C86.4188386,28.4945037 80.4457021,26.0148841 73.0813139,26.0148841 C65.7147586,26.0148841 59.7423445,28.4945037 59.7423445,31.5564144 C59.7423445,34.613985 65.7147586,37.0914346 73.0813139,37.0914346" id="Fill-930" fill="#0071A4"></path>
                            <path d="M73.0813139,35.6479314 C78.5199092,35.6479314 82.9305962,33.8135337 82.9305962,31.5559804 C82.9305962,29.2955337 78.5199092,27.4640294 73.0813139,27.4640294 C67.6405515,27.4640294 63.2313092,29.2955337 63.2313092,31.5559804 C63.2313092,33.8135337 67.6405515,35.6479314 73.0813139,35.6479314" id="Fill-932" fill="#0090D1"></path>
                            <path d="M99.7557854,37.222432 C92.3921195,37.222432 86.4189831,34.7435357 86.4189831,31.6830718 L86.4189831,35.6477144 C86.4189831,38.7038383 92.3921195,41.1863513 99.7557854,41.1863513 C107.125952,41.1863513 113.095477,38.7038383 113.095477,35.6477144 L113.095477,31.6830718 C113.095477,34.7435357 107.125952,37.222432 99.7557854,37.222432" id="Fill-934" fill="#134F78"></path>
                            <path d="M99.7557854,37.222432 C107.125952,37.222432 113.095477,34.7435357 113.095477,31.6830718 C113.095477,28.6247778 107.125952,26.1422648 99.7557854,26.1422648 C92.3921195,26.1422648 86.4189831,28.6247778 86.4189831,31.6830718 C86.4189831,34.7435357 92.3921195,37.222432 99.7557854,37.222432" id="Fill-936" fill="#0071A4"></path>
                            <path d="M99.7557854,35.7740101 C105.197992,35.7740101 109.60579,33.9432291 109.60579,31.6835058 C109.60579,29.4223357 105.197992,27.5908314 99.7557854,27.5908314 C94.3179125,27.5908314 89.9101148,29.4223357 89.9101148,31.6835058 C89.9101148,33.9432291 94.3179125,35.7740101 99.7557854,35.7740101" id="Fill-938" fill="#0090D1"></path>
                            <g id="Group-942" transform="translate(99.684706, 39.060519)">
                                <mask id="mask-20" fill="white">
                                    <use xlink:href="#path-19"></use>
                                </mask>
                                <g id="Clip-941"></g>
                                <path d="M13.410988,5.68496916 C6.04082094,5.68496916 0.0712962353,3.20317954 0.0712962353,0.141268876 L0.0712962353,4.10663487 C0.0712962353,7.1663755 6.04082094,9.64671844 13.410988,9.64671844 C20.7775433,9.64671844 26.7477904,7.1663755 26.7477904,4.10663487 L26.7477904,0.141268876 C26.7477904,3.20317954 20.7775433,5.68496916 13.410988,5.68496916" id="Fill-940" fill="#134F78" mask="url(#mask-20)"></path>
                            </g>
                            <g id="Group-945" transform="translate(99.684706, 33.273775)">
                                <mask id="mask-22" fill="white">
                                    <use xlink:href="#path-21"></use>
                                </mask>
                                <g id="Clip-944"></g>
                                <path d="M13.410988,11.4717127 C20.7775433,11.4717127 26.7477904,8.98992305 26.7477904,5.92801239 C26.7477904,2.86971844 20.7775433,0.389375504 13.410988,0.389375504 C6.04082094,0.389375504 0.0712962353,2.86971844 0.0712962353,5.92801239 C0.0712962353,8.98992305 6.04082094,11.4717127 13.410988,11.4717127" id="Fill-943" fill="#0071A4" mask="url(#mask-22)"></path>
                            </g>
                            <g id="Group-948" transform="translate(102.574118, 34.720461)">
                                <mask id="mask-24" fill="white">
                                    <use xlink:href="#path-23"></use>
                                </mask>
                                <g id="Clip-947"></g>
                                <path d="M10.5215762,8.57443487 C15.9601715,8.57443487 20.3730256,6.74365389 20.3730256,4.48176052 C20.3730256,2.22493055 15.9601715,0.393426225 10.5215762,0.393426225 C5.08153624,0.393426225 0.670126824,2.22493055 0.670126824,4.48176052 C0.670126824,6.74365389 5.08153624,8.57443487 10.5215762,8.57443487" id="Fill-946" fill="#0090D1" mask="url(#mask-24)"></path>
                            </g>
                            <path d="M33.3356492,28.4974695 C25.9669268,28.4974695 19.9959574,26.0164032 19.9959574,22.9602793 L19.9959574,26.9205818 C19.9959574,29.9788758 25.9669268,32.4606654 33.3356492,32.4606654 C40.7022045,32.4606654 46.6724515,29.9788758 46.6724515,26.9205818 L46.6724515,22.9602793 C46.6724515,26.0164032 40.7022045,28.4974695 33.3356492,28.4974695" id="Fill-949" fill="#134F78"></path>
                            <path d="M33.3356492,28.4974695 C40.7022045,28.4974695 46.6724515,26.0164032 46.6724515,22.9602793 C46.6724515,19.8990919 40.7022045,17.4173023 33.3356492,17.4173023 C25.9669268,17.4173023 19.9959574,19.8990919 19.9959574,22.9602793 C19.9959574,26.0164032 25.9669268,28.4974695 33.3356492,28.4974695" id="Fill-951" fill="#0071A4"></path>
                            <path d="M33.3356492,27.0493369 C38.7764115,27.0493369 43.1849315,25.2171092 43.1849315,22.9602793 C43.1849315,20.6983859 38.7764115,18.8661582 33.3356492,18.8661582 C27.8970539,18.8661582 23.4863668,20.6983859 23.4863668,22.9602793 C23.4863668,25.2171092 27.8970539,27.0493369 33.3356492,27.0493369" id="Fill-953" fill="#0090D1"></path>
                            <path d="M60.0112765,28.6246331 C52.6454435,28.6246331 46.6723071,26.1457369 46.6723071,23.0859963 L46.6723071,27.0491922 C46.6723071,30.1060395 52.6454435,32.5871058 60.0112765,32.5871058 C67.3792765,32.5871058 73.3509682,30.1060395 73.3509682,27.0491922 L73.3509682,23.0859963 C73.3509682,26.1457369 67.3792765,28.6246331 60.0112765,28.6246331" id="Fill-955" fill="#134F78"></path>
                            <path d="M60.0112765,28.6246331 C67.3792765,28.6246331 73.3509682,26.1457369 73.3509682,23.0859963 C73.3509682,20.0277023 67.3792765,17.546636 60.0112765,17.546636 C52.6454435,17.546636 46.6723071,20.0277023 46.6723071,23.0859963 C46.6723071,26.1457369 52.6454435,28.6246331 60.0112765,28.6246331" id="Fill-957" fill="#0071A4"></path>
                            <path d="M60.0112765,27.1775856 C65.4520388,27.1775856 69.8627259,25.3460813 69.8627259,23.0856346 C69.8627259,20.8266346 65.4520388,18.9944069 60.0112765,18.9944069 C54.5712365,18.9944069 50.1619941,20.8266346 50.1619941,23.0856346 C50.1619941,25.3460813 54.5712365,27.1775856 60.0112765,27.1775856" id="Fill-959" fill="#0090D1"></path>
                            <path d="M86.6889264,28.6246331 C79.3223711,28.6246331 73.3514016,26.1457369 73.3514016,23.0859963 L73.3514016,27.0491922 C73.3514016,30.1060395 79.3223711,32.5871058 86.6889264,32.5871058 C94.0554816,32.5871058 100.025729,30.1060395 100.025729,27.0491922 L100.025729,23.0859963 C100.025729,26.1457369 94.0554816,28.6246331 86.6889264,28.6246331" id="Fill-961" fill="#134F78"></path>
                            <path d="M86.6889264,28.6246331 C94.0554816,28.6246331 100.025729,26.1457369 100.025729,23.0859963 C100.025729,20.0277023 94.0554816,17.546636 86.6889264,17.546636 C79.3223711,17.546636 73.3514016,20.0277023 73.3514016,23.0859963 C73.3514016,26.1457369 79.3223711,28.6246331 86.6889264,28.6246331" id="Fill-963" fill="#0071A4"></path>
                            <path d="M86.6889264,27.1775856 C92.1296887,27.1775856 96.5389311,25.3460813 96.5389311,23.0856346 C96.5389311,20.8266346 92.1296887,18.9944069 86.6889264,18.9944069 C81.2503311,18.9944069 76.8374769,20.8266346 76.8374769,23.0856346 C76.8374769,25.3460813 81.2503311,27.1775856 86.6889264,27.1775856" id="Fill-965" fill="#0090D1"></path>
                            <path d="M46.4046753,20.9132911 C39.0366753,20.9132911 33.0671506,18.4329481 33.0671506,15.3724841 L33.0671506,19.3356801 C33.0671506,22.3946974 39.0366753,24.874317 46.4046753,24.874317 C53.7683412,24.874317 59.7422,22.3946974 59.7422,19.3356801 L59.7422,15.3724841 C59.7422,18.4329481 53.7683412,20.9132911 46.4046753,20.9132911" id="Fill-967" fill="#134F78"></path>
                            <path d="M46.4046753,20.9132911 C53.7683412,20.9132911 59.7422,18.4329481 59.7422,15.3724841 C59.7422,12.3141902 53.7683412,9.83457061 46.4046753,9.83457061 C39.0366753,9.83457061 33.0671506,12.3141902 33.0671506,15.3724841 C33.0671506,18.4329481 39.0366753,20.9132911 46.4046753,20.9132911" id="Fill-969" fill="#0071A4"></path>
                            <path d="M46.4046753,19.4655925 C51.8432706,19.4655925 56.2539576,17.6326415 56.2539576,15.3729182 C56.2539576,13.1146415 51.8432706,11.2795205 46.4046753,11.2795205 C40.9646353,11.2795205 36.5546706,13.1146415 36.5546706,15.3729182 C36.5546706,17.6326415 40.9646353,19.4655925 46.4046753,19.4655925" id="Fill-971" fill="#0090D1"></path>
                            <path d="M73.0813139,21.0415398 C65.7147586,21.0415398 59.7423445,18.5611968 59.7423445,15.4992862 L59.7423445,19.4653755 C59.7423445,22.5214994 65.7147586,25.0040124 73.0813139,25.0040124 C80.4457021,25.0040124 86.4188386,22.5214994 86.4188386,19.4653755 L86.4188386,15.4992862 C86.4188386,18.5611968 80.4457021,21.0415398 73.0813139,21.0415398" id="Fill-973" fill="#134F78"></path>
                            <path d="M73.0813139,21.0415398 C80.4457021,21.0415398 86.4188386,18.5611968 86.4188386,15.4992862 C86.4188386,12.4431622 80.4457021,9.95920259 73.0813139,9.95920259 C65.7147586,9.95920259 59.7423445,12.4431622 59.7423445,15.4992862 C59.7423445,18.5611968 65.7147586,21.0415398 73.0813139,21.0415398" id="Fill-975" fill="#0071A4"></path>
                            <path d="M73.0813139,19.5913095 C78.5199092,19.5913095 82.9305962,17.7590818 82.9305962,15.4993585 C82.9305962,13.2432519 78.5199092,11.4081308 73.0813139,11.4081308 C67.6405515,11.4081308 63.2313092,13.2432519 63.2313092,15.4993585 C63.2313092,17.7590818 67.6405515,19.5913095 73.0813139,19.5913095" id="Fill-977" fill="#0090D1"></path>
                            <path d="M59.7424889,11.5398516 C52.3744889,11.5398516 46.4049642,9.05733862 46.4049642,5.99832133 L46.4049642,9.95934726 C46.4049642,13.023428 52.3744889,15.4994308 59.7424889,15.4994308 C67.1090442,15.4994308 73.0814584,13.023428 73.0814584,9.95934726 L73.0814584,5.99832133 C73.0814584,9.05733862 67.1090442,11.5398516 59.7424889,11.5398516" id="Fill-979" fill="#134F78"></path>
                            <path d="M59.7424889,11.5398516 C67.1090442,11.5398516 73.0814584,9.05733862 73.0814584,5.99832133 C73.0814584,2.93858069 67.1090442,0.459684438 59.7424889,0.459684438 C52.3744889,0.459684438 46.4049642,2.93858069 46.4049642,5.99832133 C46.4049642,9.05733862 52.3744889,11.5398516 59.7424889,11.5398516" id="Fill-981" fill="#0071A4"></path>
                            <path d="M59.7424889,10.0903447 C65.1825289,10.0903447 69.5896042,8.25884035 69.5896042,5.99839366 C69.5896042,3.73867032 65.1825289,1.90644265 59.7424889,1.90644265 C54.3017266,1.90644265 49.8932066,3.73867032 49.8932066,5.99839366 C49.8932066,8.25884035 54.3017266,10.0903447 59.7424889,10.0903447" id="Fill-983" fill="#0090D1"></path>
                        </g>
                        <g id="Group-1128" transform="translate(0.000000, 0.125862)">
                            <path d="M47.6119915,98.0805634 C54.678048,96.2230187 60.9610739,97.0555865 61.6436974,99.9388314 L60.7602598,96.2049352 C60.0790809,93.3231369 53.7960551,92.4927392 46.7292762,94.3488372 C39.6588856,96.2034885 34.4846715,100.045163 35.1665727,102.925514 L36.0485656,106.660134 C35.3652198,103.776889 40.5423233,99.935938 47.6119915,98.0805634" id="Fill-986" fill="#134F78"></path>
                            <path d="M47.6119915,98.0805634 C40.5423233,99.935938 35.3652198,103.776889 36.0485656,106.660134 C36.7311892,109.542656 43.0113256,110.373777 50.0795492,108.516232 C57.1477727,106.660857 62.3241539,102.822076 61.6436974,99.9388314 C60.9610739,97.0555865 54.678048,96.2230187 47.6119915,98.0805634" id="Fill-988" fill="#0071A4"></path>
                            <path d="M47.9357501,99.4442095 C42.7145831,100.815668 38.8918913,103.651895 39.3953713,105.78214 C39.8981289,107.908045 44.5392466,108.52361 49.7589689,107.151429 C54.9765242,105.78214 58.8006607,102.943019 58.2993478,100.816391 C57.7951454,98.6883161 53.1525831,98.0749213 47.9357501,99.4442095" id="Fill-990" fill="#0090D1"></path>
                            <path d="M33.6551936,92.4615631 C40.901116,93.2210732 46.5520831,96.2301798 46.2746995,99.1879291 L46.6365984,95.3592749 C46.9132595,92.404419 41.2630148,89.3931424 34.0149254,88.6343556 C26.7653913,87.8748455 20.6658431,89.6564392 20.3862925,92.6127418 L20.025116,96.4406726 C20.3046666,93.48437 26.4027701,91.702053 33.6551936,92.4615631" id="Fill-992" fill="#134F78"></path>
                            <path d="M33.6551936,92.4615631 C26.4027701,91.702053 20.3046666,93.48437 20.025116,96.4406726 C19.7470101,99.3969752 25.3950878,102.406805 32.6460666,103.164869 C39.894156,103.925102 45.9951489,102.144232 46.2746995,99.1879291 C46.5520831,96.2301798 40.901116,93.2210732 33.6551936,92.4615631" id="Fill-994" fill="#0071A4"></path>
                            <path d="M33.5229308,93.8609424 C28.1695732,93.3025216 23.6635355,94.6146657 23.4591096,96.7998847 C23.2517944,98.9800403 27.4241049,101.205043 32.7767402,101.767081 C38.1286532,102.326948 42.6368579,101.010464 42.8441732,98.829585 C43.0493214,96.6458127 38.8741214,94.4215331 33.5229308,93.8609424" id="Fill-996" fill="#0090D1"></path>
                            <path d="M58.6663031,88.1158634 C65.9136701,88.8739268 71.5660819,91.8859268 71.2865313,94.8422294 L71.6484301,91.0121285 C71.9258136,88.057996 66.2741242,85.0467193 59.0274795,84.2879326 C51.7786678,83.5284225 45.6776748,85.3114628 45.4002913,88.264872 L45.0376701,92.0935262 C45.3179431,89.1386703 51.4167689,87.3563533 58.6663031,88.1158634" id="Fill-998" fill="#134F78"></path>
                            <path d="M58.6663031,88.1158634 C51.4167689,87.3563533 45.3179431,89.1386703 45.0376701,92.0935262 C44.7595642,95.0498288 50.4076419,98.0582121 57.6600654,98.8177222 C64.9059878,99.5765089 71.0069807,97.7978086 71.2865313,94.8422294 C71.5660819,91.8859268 65.9136701,88.8739268 58.6663031,88.1158634" id="Fill-1000" fill="#0071A4"></path>
                            <path d="M58.5361351,89.514881 C53.1827774,88.9550135 48.6767398,90.2693277 48.4701468,92.4531 C48.2635539,94.6354256 52.4373092,96.8589818 57.7899445,97.4195726 C63.1418574,97.9787167 67.6486174,96.6629559 67.8559327,94.4828003 C68.0618033,92.299028 63.8858809,90.0754718 58.5361351,89.514881" id="Fill-1002" fill="#0090D1"></path>
                            <path d="M71.0285068,111.250468 C78.0461656,113.308379 83.1206951,117.293275 82.3651139,120.157713 L83.3460692,116.449134 C84.100928,113.591929 79.0249539,109.600523 72.0080174,107.542612 C64.9910809,105.484702 58.6885515,106.13788 57.9329704,108.995808 L56.9534598,112.702941 C57.7090409,109.841396 64.010848,109.190388 71.0285068,111.250468" id="Fill-1004" fill="#134F78"></path>
                            <path d="M71.0285068,111.250468 C64.010848,109.190388 57.7090409,109.841396 56.9534598,112.702941 C56.1978786,115.563762 61.272408,119.552275 68.2900668,121.610909 C75.3077256,123.668097 81.6095327,123.017088 82.3651139,120.157713 C83.1206951,117.293275 78.0461656,113.308379 71.0285068,111.250468" id="Fill-1006" fill="#0071A4"></path>
                            <path d="M70.6708699,112.605 C65.4879875,111.084533 60.8367569,111.565556 60.2776558,113.679888 C59.7192769,115.793496 63.466844,118.736055 68.6475593,120.255799 C73.8304416,121.776265 78.4831169,121.296689 79.0414958,119.181634 C79.6005969,117.06875 75.8523075,114.125467 70.6708699,112.605" id="Fill-1008" fill="#0090D1"></path>
                            <path d="M70.9978068,125.414319 C73.1345268,132.750463 72.6830562,139.405218 69.9872351,140.276123 L73.4805339,139.146984 C76.1712986,138.276803 76.6263809,131.622048 74.4889386,124.285904 C72.3514962,116.94759 68.4341762,111.707693 65.7397998,112.576428 L62.2493904,113.707737 C64.9452115,112.836108 68.8603645,118.076728 70.9978068,125.414319" id="Fill-1010" fill="#134F78"></path>
                            <path d="M70.9978068,125.414319 C68.8603645,118.076728 64.9452115,112.836108 62.2493904,113.707737 C59.5542915,114.577918 59.1013762,121.231227 61.2388186,128.568817 C63.3740939,135.905685 67.2935809,141.147028 69.9872351,140.276123 C72.6830562,139.405218 73.1345268,132.750463 70.9978068,125.414319" id="Fill-1012" fill="#0071A4"></path>
                            <path d="M69.7206146,125.825756 C68.1415511,120.409364 65.2521393,116.53948 63.2620569,117.184701 C61.2690852,117.825583 60.9360805,122.737805 62.5136993,128.155644 C64.0920405,133.572759 66.9821746,137.444814 68.9758687,136.801039 C70.9659511,136.15871 71.2996781,131.243595 69.7206146,125.825756" id="Fill-1014" fill="#0090D1"></path>
                            <path d="M78.6089508,93.6765622 C85.8086426,92.5293403 91.9876496,93.9789196 92.4109485,96.9156919 L91.865572,93.1094614 C91.4444402,90.1770291 85.2625438,88.7252798 78.0621296,89.871055 C70.8581038,91.0197236 65.3609979,94.3304643 65.7835744,97.2643432 L66.3289508,101.070574 C65.9070967,98.1323548 71.4027579,94.8223375 78.6089508,93.6765622" id="Fill-1016" fill="#134F78"></path>
                            <path d="M78.6089508,93.6765622 C71.4027579,94.8223375 65.9070967,98.1323548 66.3289508,101.070574 C66.7500826,104.006623 72.929812,105.458372 80.1338379,104.309703 C87.334252,103.162482 92.8320802,99.8524643 92.4109485,96.9156919 C91.9876496,93.9789196 85.8086426,92.5293403 78.6089508,93.6765622" id="Fill-1018" fill="#0071A4"></path>
                            <path d="M78.8078868,95.0671167 C73.4877574,95.913428 69.4288562,98.3568804 69.739468,100.527633 C70.0529692,102.696938 74.6131833,103.767486 79.9347574,102.920451 C85.2505527,102.07197 89.3123433,99.6285173 88.9995645,97.4577651 C88.687508,95.2899063 84.1236821,94.2193588 78.8078868,95.0671167" id="Fill-1020" fill="#0090D1"></path>
                            <path d="M82.4986769,102.889637 C89.7821616,103.026348 95.6447781,105.543582 95.5942134,108.514351 L95.6606699,104.66689 C95.7126793,101.699014 89.8464511,99.1788873 82.5651334,99.0414522 C75.280204,98.9054637 69.336684,101.202801 69.2846746,104.16923 L69.2189405,108.017415 C69.2702275,105.045199 75.2144699,102.751478 82.4986769,102.889637" id="Fill-1022" fill="#134F78"></path>
                            <path d="M82.4986769,102.889637 C75.2144699,102.751478 69.2702275,105.045199 69.2189405,108.017415 C69.1705428,110.986014 75.0324369,113.505418 82.316644,113.642853 C89.598684,113.780288 95.5443711,111.482227 95.5942134,108.514351 C95.6447781,105.543582 89.7821616,103.026348 82.4986769,102.889637" id="Fill-1024" fill="#0071A4"></path>
                            <path d="M82.4754172,104.296756 C77.0967772,104.193318 72.7084831,105.88811 72.6709207,108.082009 C72.6333584,110.277355 76.9624195,112.1349 82.3410595,112.236168 C87.7175325,112.336712 92.108716,110.64409 92.1470007,108.448744 C92.182396,106.256292 87.8526125,104.396577 82.4754172,104.296756" id="Fill-1026" fill="#0090D1"></path>
                            <path d="M89.7892407,93.6388037 C97.0727254,93.7762389 102.935342,96.2934723 102.886944,99.2635184 L102.950511,95.4146107 C103.001076,92.4503513 97.1370148,89.9295012 89.8549748,89.7913427 C82.5707678,89.6531841 76.6258031,91.951968 76.5752384,94.9176741 L76.5109489,98.7651352 C76.5607913,95.7965357 82.5050336,93.5013686 89.7892407,93.6388037" id="Fill-1028" fill="#134F78"></path>
                            <path d="M89.7892407,93.6388037 C82.5050336,93.5013686 76.5607913,95.7965357 76.5109489,98.7651352 C76.4611066,101.734458 82.3230007,104.253861 89.6064854,104.391297 C96.8892478,104.528732 102.834935,102.231395 102.886944,99.2635184 C102.935342,96.2934723 97.0727254,93.7762389 89.7892407,93.6388037" id="Fill-1030" fill="#0071A4"></path>
                            <path d="M89.7659087,95.0448378 C84.3851016,94.9428464 79.9982522,96.6376389 79.9614122,98.8308147 C79.9231275,101.025437 84.250744,102.883705 89.629384,102.985697 C95.0065793,103.088411 99.3970405,101.392172 99.4353252,99.1975496 C99.4721652,97.0050971 95.143104,95.1475524 89.7659087,95.0448378" id="Fill-1032" fill="#0090D1"></path>
                            <path d="M100.952555,89.4972314 C106.83612,84.9712746 112.953005,83.2461017 114.616584,85.6447069 L112.461082,82.535779 C110.801838,80.1415138 104.681341,81.8659634 98.7992212,86.3897501 C92.9163788,90.9178769 89.4960376,96.5324648 91.1581718,98.9281767 L93.3107835,102.034211 C91.6493718,99.6363294 95.0689906,94.0239115 100.952555,89.4972314" id="Fill-1034" fill="#134F78"></path>
                            <path d="M100.952555,89.4972314 C95.0689906,94.0239115 91.6493718,99.6363294 93.3107835,102.034211 C94.9743624,104.43354 101.089802,102.709814 106.973367,98.1824101 C112.855487,93.6564533 116.276551,88.0425888 114.616584,85.6447069 C112.953005,83.2461017 106.83612,84.9712746 100.952555,89.4972314" id="Fill-1036" fill="#0071A4"></path>
                            <path d="M101.739776,90.6320118 C97.3969896,93.9760262 94.8701991,98.1186112 96.0974767,99.8908014 C97.3276438,101.663715 101.841627,100.388461 106.188025,97.046617 C110.529366,93.7047726 113.057601,89.5607409 111.828157,87.7878274 C110.600879,86.0178072 106.083284,87.2908908 101.739776,90.6320118" id="Fill-1038" fill="#0090D1"></path>
                            <path d="M58.9456369,103.525021 C65.0148464,99.276828 71.1967428,97.8424389 72.7577475,100.315548 L70.736604,97.1104159 C69.177044,94.6358597 62.9951475,96.0724187 56.9259381,100.319165 C50.8581734,104.567358 47.2045122,110.015577 48.7640722,112.48724 L50.7852158,115.692373 C49.2256558,113.217816 52.8785946,107.771767 58.9456369,103.525021" id="Fill-1040" fill="#134F78"></path>
                            <path d="M58.9456369,103.525021 C52.8785946,107.771767 49.2256558,113.217816 50.7852158,115.692373 C52.3447758,118.166929 58.5252275,116.728923 64.5951593,112.484347 C70.6658134,108.23543 74.3173075,102.790105 72.7577475,100.315548 C71.1967428,97.8424389 65.0148464,99.276828 58.9456369,103.525021" id="Fill-1042" fill="#0071A4"></path>
                            <path d="M59.6831593,104.69662 C55.2031264,107.832311 52.5044158,111.854821 53.6572911,113.682709 C54.809444,115.508427 59.3739922,114.447282 63.8554699,111.313037 C68.3362252,108.176622 71.0349358,104.153389 69.8827828,102.326948 C68.7299075,100.498337 64.1646369,101.559481 59.6831593,104.69662" id="Fill-1044" fill="#0090D1"></path>
                            <path d="M53.0656118,111.597673 C57.38456,117.782255 59.0459718,124.217837 56.7734494,125.978454 L59.7148706,123.696307 C61.9859482,121.936414 60.3245365,115.500831 56.0048659,109.317696 C51.68664,103.138177 46.3455624,99.5554597 44.0759294,101.3168 L41.1337859,103.59967 C43.4048635,101.836883 48.7466635,105.418154 53.0656118,111.597673" id="Fill-1046" fill="#134F78"></path>
                            <path d="M53.0656118,111.597673 C48.7466635,105.418154 43.4048635,101.836883 41.1337859,103.59967 C38.8641529,105.35884 40.5248424,111.795146 44.8437906,117.975388 C49.1656282,124.1578 54.5045388,127.739794 56.7734494,125.978454 C59.0459718,124.217837 57.38456,117.782255 53.0656118,111.597673" id="Fill-1048" fill="#0071A4"></path>
                            <path d="M51.9905339,112.434725 C48.8013456,107.868985 44.8565762,105.222996 43.1792727,106.523567 C41.5019692,107.823414 42.7299692,112.576501 45.9191574,117.141518 C49.1083456,121.705812 53.050948,124.350354 54.7289739,123.050506 C56.4048327,121.750659 55.1789998,116.996126 51.9905339,112.434725" id="Fill-1050" fill="#0090D1"></path>
                            <polygon id="Fill-1052" fill="#F6FCFD" points="20.3311769 206.783311 20.3311769 186.857383 20.3311769 162.124841 59.9580146 127.916507 16.8776075 90.7272761 16.8776075 65.994011 16.8776075 46.068083 16.8776075 35.1470513 16.8776075 27.3175873 3.39561224 27.3175873 3.39561224 35.1470513 3.39561224 46.068083 3.39561224 65.994011 3.39561224 90.7272761 46.4752969 127.916507 6.84845929 162.124841 6.84845929 186.857383 6.84845929 206.783311 6.84845929 217.705789 6.84845929 225.535253 20.3311769 225.535253 20.3311769 217.705789"></polygon>
                            <path d="M73.8621529,157.035834 C69.0664518,161.838831 63.6755318,164.224416 61.8183624,162.364701 L64.2223529,164.77271 C66.0788,166.631701 71.4689976,164.24467 76.2661435,159.441673 C81.0618447,154.639399 83.4456094,149.240367 81.5877176,147.380652 L79.1866165,144.973367 C81.0423412,146.833805 78.6585765,152.232114 73.8621529,157.035834" id="Fill-1054" fill="#134F78"></path>
                            <path d="M73.8621529,157.035834 C78.6585765,152.232114 81.0423412,146.833805 79.1866165,144.973367 C77.3287247,143.115099 71.9370824,145.502854 67.1421035,150.305128 C62.3478471,155.108125 59.9626376,160.507157 61.8183624,162.364701 C63.6755318,164.224416 69.0664518,161.838831 73.8621529,157.035834" id="Fill-1056" fill="#0071A4"></path>
                            <path d="M72.9849998,156.154947 C76.5252515,152.60912 78.2841809,148.622054 76.9138774,147.249149 C75.5428515,145.876967 71.5619645,147.638307 68.0188233,151.183411 C64.4764045,154.732131 62.7203645,158.719198 64.0892233,160.090656 C65.4602492,161.463561 69.4411362,159.703667 72.9849998,156.154947" id="Fill-1058" fill="#0090D1"></path>
                            <path d="M3.52657482,227.181365 C3.52657482,231.652347 7.14628541,235.276295 11.6104266,235.276295 L121.411685,235.276295 C125.875827,235.276295 129.495537,231.652347 129.495537,227.181365 L129.495537,225.535759 L3.52657482,225.535759 L3.52657482,227.181365 Z" id="Fill-1060" fill="#3C3B3F"></path>
                            <path d="M3.57771741,227.181365 C3.57771741,231.652347 7.197428,235.276295 11.6615692,235.276295 L121.46355,235.276295 C125.926247,235.276295 129.54668,231.652347 129.54668,227.181365 L129.54668,225.535759 L129.388484,225.535759 C128.65024,229.242892 125.383037,232.037889 121.46355,232.037889 L11.6615692,232.037889 C7.74135976,232.037889 4.47487976,229.242892 3.73591271,225.535759 L3.57771741,225.535759 L3.57771741,227.181365 Z" id="Fill-1062" fill="#353538"></path>
                            <path d="M126.485276,25.6693058 C126.485276,21.1990464 122.865565,17.5736516 118.401424,17.5736516 L8.59944282,17.5736516 C4.13530165,17.5736516 0.514868706,21.1990464 0.514868706,25.6693058 L0.514868706,27.317081 L126.485276,27.317081 L126.485276,25.6693058 Z" id="Fill-1064" fill="#3C3B3F"></path>
                            <path d="M126.434494,25.6693058 C126.434494,21.1990464 122.813339,17.5736516 118.348476,17.5736516 L8.54793906,17.5736516 C4.08379788,17.5736516 0.463364941,21.1990464 0.463364941,25.6693058 L0.463364941,27.317081 L0.622282588,27.317081 C1.36124965,23.6085017 4.62772965,20.8135046 8.54793906,20.8135046 L118.348476,20.8135046 C122.269407,20.8135046 125.535887,23.6085017 126.275577,27.317081 L126.434494,27.317081 L126.434494,25.6693058 Z" id="Fill-1066" fill="#353538"></path>
                            <path d="M64.0427038,181.353322 C64.0427038,181.793114 63.658412,182.147552 63.1867155,182.147552 L45.3330402,182.147552 C44.8598991,182.147552 44.4777744,181.793114 44.4777744,181.353322 C44.4777744,180.913529 44.8598991,180.557644 45.3330402,180.557644 L63.1867155,180.557644 C63.658412,180.557644 64.0427038,180.913529 64.0427038,181.353322" id="Fill-1068" fill="#FFFFFF"></path>
                            <path d="M83.8424701,186.035231 C83.8424701,186.522764 83.4184489,186.919156 82.892576,186.919156 L61.1641995,186.919156 C60.6419384,186.919156 60.2143054,186.522764 60.2143054,186.035231 C60.2143054,185.548421 60.6419384,185.152753 61.1641995,185.152753 L82.892576,185.152753 C83.4184489,185.152753 83.8424701,185.548421 83.8424701,186.035231" id="Fill-1070" fill="#FFFFFF"></path>
                            <path d="M72.9786431,181.353322 C72.9786431,181.793114 72.5943513,182.147552 72.1233772,182.147552 L68.3758101,182.147552 C67.9026689,182.147552 67.5198219,181.793114 67.5198219,181.353322 C67.5198219,180.913529 67.9026689,180.557644 68.3758101,180.557644 L72.1233772,180.557644 C72.5943513,180.557644 72.9786431,180.913529 72.9786431,181.353322" id="Fill-1072" fill="#FFFFFF"></path>
                            <path d="M66.1335544,191.513614 C66.1335544,192.000423 65.7080885,192.396092 65.1822155,192.396092 L37.6107261,192.396092 C37.0870202,192.396092 36.6601096,192.000423 36.6601096,191.513614 C36.6601096,191.02391 37.0870202,190.629688 37.6107261,190.629688 L65.1822155,190.629688 C65.7080885,190.629688 66.1335544,191.02391 66.1335544,191.513614" id="Fill-1074" fill="#FFFFFF"></path>
                            <path d="M93.5138369,191.513614 C93.5138369,192.000423 93.0883711,192.396092 92.5661099,192.396092 L73.9301264,192.396092 C73.4028087,192.396092 72.9787875,192.000423 72.9787875,191.513614 C72.9787875,191.02391 73.4028087,190.629688 73.9301264,190.629688 L92.5661099,190.629688 C93.0883711,190.629688 93.5138369,191.02391 93.5138369,191.513614" id="Fill-1076" fill="#FFFFFF"></path>
                            <path d="M83.1991426,35.7399032 C83.1991426,36.0241769 82.8870861,36.2527533 82.5049614,36.2527533 L68.0022814,36.2527533 C67.6194344,36.2527533 67.3081002,36.0241769 67.3081002,35.7399032 C67.3081002,35.4577994 67.6194344,35.2277764 68.0022814,35.2277764 L82.5049614,35.2277764 C82.8870861,35.2277764 83.1991426,35.4577994 83.1991426,35.7399032" id="Fill-1078" fill="#FFFFFF"></path>
                            <path d="M99.2827642,38.7590643 C99.2827642,39.0737184 98.9360348,39.3276118 98.5105689,39.3276118 L80.8627642,39.3276118 C80.4351313,39.3276118 80.0905689,39.0737184 80.0905689,38.7590643 C80.0905689,38.4436867 80.4351313,38.1897934 80.8627642,38.1897934 L98.5105689,38.1897934 C98.9360348,38.1897934 99.2827642,38.4436867 99.2827642,38.7590643" id="Fill-1080" fill="#FFFFFF"></path>
                            <path d="M90.4579228,35.7399032 C90.4579228,36.0241769 90.1458664,36.2527533 89.7637416,36.2527533 L86.7197464,36.2527533 C86.3354546,36.2527533 86.0241205,36.0241769 86.0241205,35.7399032 C86.0241205,35.4577994 86.3354546,35.2277764 86.7197464,35.2277764 L89.7637416,35.2277764 C90.1458664,35.2277764 90.4579228,35.4577994 90.4579228,35.7399032" id="Fill-1082" fill="#FFFFFF"></path>
                            <path d="M84.8963831,42.2895565 C84.8963831,42.6042107 84.5525431,42.8588274 84.1263548,42.8588274 L61.7319689,42.8588274 C61.304336,42.8588274 60.9590513,42.6042107 60.9590513,42.2895565 C60.9590513,41.974179 61.304336,41.7195622 61.7319689,41.7195622 L84.1263548,41.7195622 C84.5525431,41.7195622 84.8963831,41.974179 84.8963831,42.2895565" id="Fill-1084" fill="#FFFFFF"></path>
                            <path d="M107.138352,42.2895565 C107.138352,42.6042107 106.792345,42.8588274 106.36399,42.8588274 L91.2314184,42.8588274 C90.8037854,42.8588274 90.4577784,42.6042107 90.4577784,42.2895565 C90.4577784,41.974179 90.8037854,41.7195622 91.2314184,41.7195622 L106.36399,41.7195622 C106.792345,41.7195622 107.138352,41.974179 107.138352,42.2895565" id="Fill-1086" fill="#FFFFFF"></path>
                            <path d="M150.672108,26.8097282 C153.135332,41.6744256 143.096071,55.7253622 128.248106,58.1934084 C113.402308,60.6556677 99.36988,50.6026476 96.9102682,35.7336101 C94.4448776,20.8681893 104.482694,6.81508271 119.329936,4.35137666 C134.180791,1.88405389 148.209607,11.9392441 150.672108,26.8097282" id="Fill-1088" fill="#134F78"></path>
                            <path d="M153.434892,23.5663308 C155.897393,38.434645 145.85452,52.4841349 131.011612,54.950011 C116.15859,57.4173337 102.131219,47.3614202 99.6701621,32.4931061 C97.2069386,17.6255153 107.244033,3.57530202 122.09272,1.10725591 C136.939962,-1.35355677 150.97239,8.69874006 153.434892,23.5663308" id="Fill-1090" fill="#0071A4"></path>
                            <path d="M147.662786,24.5267133 C149.599414,36.1992983 141.709875,47.2288314 130.053266,49.1652205 C118.392322,51.1008862 107.377162,43.207768 105.445591,31.535183 C103.511129,19.8611513 111.394889,8.82872478 123.051499,6.89305908 C134.710998,4.95594669 145.726158,12.8497882 147.662786,24.5267133" id="Fill-1092" fill="#0090D1"></path>
                            <path d="M122.814,27.7665 L117,49.2232 L128.4627,30.1757 C128.6204,29.9686 128.7629,29.7463 128.8712,29.4955 C128.9491,29.3074 129.0061,29.1155 129.0479,28.9217 L141.1186,22 L127.3664,25.42 C127.3056,25.3915 127.2543,25.3497 127.1935,25.325 C125.5785,24.6353 123.7127,25.3877 123.0211,27.0008 C122.9166,27.2516 122.8539,27.5081 122.814,27.7665" id="Fill-229" fill="#FFFFFF"></path>
                            <circle id="Oval-2" fill="#0090D1" cx="126" cy="28" r="2"></circle>
                        </g>
                    </g>
                </g>
            </g>
        </g>
    </g>
</svg>