<?xml version="1.0" encoding="UTF-8" standalone="no"?>
<svg width="387px" height="240px" viewBox="0 0 387 240" version="1.1" xmlns="http://www.w3.org/2000/svg" xmlns:xlink="http://www.w3.org/1999/xlink">
    <!-- Generator: Sketch 42 (36781) - http://www.bohemiancoding.com/sketch -->
    <title>ilustracja_rwd</title>
    <desc>Created with Sketch.</desc>
    <defs></defs>
    <g id="Page-1" stroke="none" stroke-width="1" fill="none" fill-rule="evenodd">
        <g id="Aplikacje.gov.pl---Oświadczenie" transform="translate(-431.000000, -1127.000000)">
            <g id="Automatyzacja-procesów" transform="translate(431.000000, 1127.000000)">
                <g id="ilustracja_rwd">
                    <path d="M368.164744,145.761309 L366.566867,145.761309 L366.566867,29.8303558 C366.566867,24.519047 362.216931,20.1734307 356.900341,20.1734307 L210.281656,20.1734307 L210.281656,18.7770394 L208.461933,18.7770394 C207.372032,16.0759975 204.722437,14.1542694 201.640266,14.1542694 L192.325601,14.1542694 L192.325601,28.8482465 L201.640266,28.8482465 C204.721954,28.8482465 207.372032,26.9265184 208.46145,24.2254765 L210.281656,24.2254765 L210.281656,22.587662 L356.900341,22.587662 C360.898417,22.587662 364.150236,25.8367344 364.150236,29.8303558 L364.150236,145.761309 L362.71089,145.761309 L362.71089,147.579225 C360.007163,148.668043 358.083524,151.315006 358.083524,154.393634 L358.083524,163.69953 L372.791627,163.69953 L372.791627,154.393634 C372.791627,151.315006 370.868472,148.668043 368.164744,147.579708 L368.164744,145.761309 Z" id="Fill-56" fill="#0D3754"></path>
                    <path d="M130.81487,14.1542211 C127.733181,14.1542211 125.08262,16.0759492 123.993202,18.7769911 L122.173479,18.7769911 L122.173479,20.1733825 L38.5543105,20.1733825 C33.2377212,20.1733825 28.8877845,24.5189987 28.8877845,29.8303075 L28.8877845,137.869011 L27.3599901,137.869011 L27.3599901,139.686928 C24.6562628,140.775746 22.7331074,143.422709 22.7331074,146.501337 L22.7331074,155.807233 L37.44121,155.807233 L37.44121,146.501337 C37.44121,143.423192 35.5180547,140.775746 32.8143274,139.68741 L32.8143274,137.869011 L31.304416,137.869011 L31.304416,29.8303075 C31.304416,25.8366861 34.5567187,22.5876137 38.5543105,22.5876137 L122.173479,22.5876137 L122.173479,24.2254282 L123.993202,24.2254282 C125.083103,26.9264701 127.733181,28.8481982 130.81487,28.8481982 L140.129051,28.8481982 L140.129051,14.1542211 L130.81487,14.1542211 Z" id="Fill-57" fill="#0D3754"></path>
                    <path d="M205.704312,129.257377 L204.163468,129.257377 L204.163468,113.19509 C204.163468,107.883781 199.813531,103.538165 194.497425,103.538165 L190.670931,103.538165 L174.753042,103.536717 C170.75545,103.536717 167.503147,100.288127 167.503147,96.2940229 L167.503147,63.7592325 L168.889327,63.7592325 L168.889327,61.9413164 C171.592571,60.8529809 173.51621,58.2055349 173.51621,55.1269072 L173.51621,45.8214943 L158.807624,45.8214943 L158.807624,55.1269072 C158.807624,58.2055349 160.731746,60.8529809 163.43499,61.9417992 L163.43499,63.7592325 L165.086516,63.7592325 L165.086516,96.2940229 C165.086516,101.605332 169.436452,105.950948 174.753042,105.950948 L186.079331,105.950948 L194.497425,105.952396 C198.495017,105.952396 201.746836,109.201952 201.746836,113.19509 L201.746836,129.257377 L200.250458,129.257377 L200.250458,131.075294 C197.546731,132.164112 195.623092,134.811075 195.623092,137.889703 L195.623092,147.195598 L210.331195,147.195598 L210.331195,137.889703 C210.331195,134.811558 208.408039,132.164112 205.704312,131.075776 L205.704312,129.257377 Z" id="Fill-58" fill="#0D3754"></path>
                    <circle id="Oval" fill="#0090D1" cx="166" cy="21" r="21"></circle>
                    <path d="M263.854507,231.067393 L248.101453,231.067393 L200.693427,231.067393 L192.768809,231.067393 L184.941339,231.067393 L140.6962,231.067393 C140.625634,231.376897 140.584552,231.697024 140.584552,232.026808 L140.584552,234.905055 C140.584552,237.279693 142.529457,239.223632 144.906455,239.223632 L184.941339,239.223632 L192.768809,239.223632 L200.693427,239.223632 L243.890715,239.223632 L259.644252,239.223632 C262.022217,239.223632 263.965672,237.279693 263.965672,234.905055 L263.965672,232.026808 C263.965672,231.697024 263.92604,231.376897 263.854507,231.067393" id="Fill-60" fill="#134F78"></path>
                    <path d="M263.854507,231.067393 L248.101453,231.067393 L202.32707,231.067393 L202.32707,239.223632 L243.890715,239.223632 L259.644252,239.223632 C262.022217,239.223632 263.965672,237.279693 263.965672,234.905055 L263.965672,232.026808 C263.965672,231.697024 263.92604,231.376897 263.854507,231.067393" id="Fill-61" fill="#0D3754"></path>
                    <polygon id="Fill-62" fill="#CBCFD3" points="218.223623 236.60926 186.326988 236.60926 186.481652 233.681281 217.786696 233.681281"></polygon>
                    <polygon id="Fill-63" fill="#0090D1" points="143.420034 225.406455 261.234202 225.406455 261.234202 155.128666 143.420034 155.128666"></polygon>
                    <polygon id="Fill-64" fill="#0071A4" points="202.32736 225.406455 261.444932 225.406455 261.444932 155.128666 202.32736 155.128666"></polygon>
                    <path d="M260.110179,220.771517 C260.110179,222.895075 258.382287,224.623182 256.254685,224.623182 L148.295539,224.623182 C146.16987,224.623182 144.441012,222.895075 144.441012,220.771517 L144.441012,159.140539 C144.441012,157.017464 146.16987,155.289357 148.295539,155.289357 L256.254685,155.289357 C258.382287,155.289357 260.110179,157.017464 260.110179,159.140539 L260.110179,220.771517 Z M256.254685,151.438658 L148.295539,151.438658 C144.055801,151.438658 140.584552,154.904529 140.584552,159.140539 L140.584552,220.771517 C140.584552,225.008493 144.055801,228.474363 148.295539,228.474363 L256.254685,228.474363 C260.49539,228.474363 263.966156,225.008493 263.966156,220.771517 L263.966156,159.140539 C263.966156,154.904529 260.49539,151.438658 256.254685,151.438658 L256.254685,151.438658 Z" id="Fill-65" fill="#134F78"></path>
                    <path d="M256.254878,151.438755 L202.275547,151.438755 L202.275547,155.289454 L256.254878,155.289454 C258.381997,155.289454 260.110372,157.01756 260.110372,159.140635 L260.110372,220.771614 C260.110372,222.895172 258.381997,224.622795 256.254878,224.622795 L202.275547,224.622795 L202.275547,228.47446 L256.254878,228.47446 C260.4951,228.47446 263.965866,225.00859 263.965866,220.771614 L263.965866,159.140635 C263.965866,154.904625 260.4951,151.438755 256.254878,151.438755" id="Fill-66" fill="#0D3754"></path>
                    <path d="M181.625334,168.255372 C181.625334,168.718905 181.245923,169.098905 180.78193,169.098905 L159.263276,169.098905 C158.799283,169.098905 158.418905,168.718905 158.418905,168.255372 L158.418905,165.726224 C158.418905,165.262691 158.799283,164.883174 159.263276,164.883174 L180.78193,164.883174 C181.245923,164.883174 181.625334,165.262691 181.625334,165.726224 L181.625334,168.255372 Z" id="Fill-67" fill="#FFFFFF"></path>
                    <path d="M246.514258,185.32616 C246.514258,185.78921 246.134847,186.169693 245.67037,186.169693 L158.754769,186.169693 C158.289809,186.169693 157.909915,185.78921 157.909915,185.32616 L157.909915,172.259375 C157.909915,171.796325 158.289809,171.416325 158.754769,171.416325 L245.67037,171.416325 C246.134847,171.416325 246.514258,171.796325 246.514258,172.259375 L246.514258,185.32616 Z" id="Fill-68" fill="#FFFFFF"></path>
                    <path d="M246.514258,203.895027 C246.514258,204.359525 246.134847,204.739525 245.67037,204.739525 L220.24934,204.739525 C219.784864,204.739525 219.405936,204.359525 219.405936,203.895027 L219.405936,190.829207 C219.405936,190.365675 219.784864,189.986158 220.24934,189.986158 L245.67037,189.986158 C246.134847,189.986158 246.514258,190.365675 246.514258,190.829207 L246.514258,203.895027 Z" id="Fill-69" fill="#E6E7E8"></path>
                    <path d="M215.766392,203.895027 C215.766392,204.359525 215.386981,204.739525 214.922988,204.739525 L189.501958,204.739525 C189.037481,204.739525 188.657587,204.359525 188.657587,203.895027 L188.657587,190.829207 C188.657587,190.365675 189.037481,189.986158 189.501958,189.986158 L214.922988,189.986158 C215.386981,189.986158 215.766392,190.365675 215.766392,190.829207 L215.766392,203.895027 Z" id="Fill-70" fill="#FFFFFF"></path>
                    <path d="M185.01901,203.895027 C185.01901,204.359525 184.639115,204.739525 184.175122,204.739525 L158.754576,204.739525 C158.289616,204.739525 157.909721,204.359525 157.909721,203.895027 L157.909721,190.829207 C157.909721,190.365675 158.289616,189.986158 158.754576,189.986158 L184.175122,189.986158 C184.639115,189.986158 185.01901,190.365675 185.01901,190.829207 L185.01901,203.895027 Z" id="Fill-71" fill="#FFFFFF"></path>
                    <polygon id="Fill-72" fill="#FFFFFF" points="157.909673 210.578729 175.025707 210.578729 175.025707 209.683532 157.909673 209.683532"></polygon>
                    <polygon id="Fill-73" fill="#FFFFFF" points="157.909673 213.521677 185.018962 213.521677 185.018962 212.627446 157.909673 212.627446"></polygon>
                    <polygon id="Fill-74" fill="#FFFFFF" points="188.657442 213.521677 215.766247 213.521677 215.766247 212.627446 188.657442 212.627446"></polygon>
                    <polygon id="Fill-75" fill="#E6E7E8" points="219.405694 213.521677 246.514016 213.521677 246.514016 212.627446 219.405694 212.627446"></polygon>
                    <polygon id="Fill-76" fill="#FFFFFF" points="157.909673 216.464625 185.018962 216.464625 185.018962 215.570877 157.909673 215.570877"></polygon>
                    <polygon id="Fill-77" fill="#FFFFFF" points="188.657442 216.464625 215.766247 216.464625 215.766247 215.570877 188.657442 215.570877"></polygon>
                    <polygon id="Fill-78" fill="#E6E7E8" points="219.405694 216.464625 246.514016 216.464625 246.514016 215.570877 219.405694 215.570877"></polygon>
                    <polygon id="Fill-79" fill="#FFFFFF" points="188.657442 210.578729 215.766247 210.578729 215.766247 209.683532 188.657442 209.683532"></polygon>
                    <polygon id="Fill-80" fill="#E6E7E8" points="219.405694 210.578729 246.514016 210.578729 246.514016 209.683532 219.405694 209.683532"></polygon>
                    <path d="M210.936899,168.255372 C210.936899,168.718905 210.557488,169.098905 210.093495,169.098905 L188.574841,169.098905 C188.110365,169.098905 187.731437,168.718905 187.731437,168.255372 L187.731437,165.726224 C187.731437,165.262691 188.110365,164.883174 188.574841,164.883174 L210.093495,164.883174 C210.557488,164.883174 210.936899,165.262691 210.936899,165.726224 L210.936899,168.255372 Z" id="Fill-81" fill="#FFFFFF"></path>
                    <path d="M245.670322,164.883029 L229.898418,164.883029 C230.00765,165.142318 230.068549,165.428163 230.068549,165.726079 L230.068549,168.255227 C230.068549,168.554109 230.00765,168.838506 229.898418,169.09876 L245.670322,169.09876 C246.134799,169.09876 246.51421,168.71876 246.51421,168.255227 L246.51421,165.726079 C246.51421,165.262546 246.134799,164.883029 245.670322,164.883029" id="Fill-82" fill="#E6E7E8"></path>
                    <path d="M227.881643,164.883029 L212.109739,164.883029 C212.218004,165.142318 212.27987,165.428163 212.27987,165.726079 L212.27987,168.255227 C212.27987,168.554109 212.218004,168.838506 212.109739,169.09876 L227.881643,169.09876 C228.345636,169.09876 228.725047,168.71876 228.725047,168.255227 L228.725047,165.726079 C228.725047,165.262546 228.345636,164.883029 227.881643,164.883029" id="Fill-83" fill="#E6E7E8"></path>
                    <path d="M210.093447,164.883029 L202.32736,164.883029 L202.32736,169.09876 L210.093447,169.09876 C210.55744,169.09876 210.936851,168.71876 210.936851,168.255227 L210.936851,165.726079 C210.936851,165.262546 210.55744,164.883029 210.093447,164.883029" id="Fill-84" fill="#E6E7E8"></path>
                    <path d="M245.670322,171.416518 L202.32707,171.416518 L202.32707,186.169886 L245.670322,186.169886 C246.134799,186.169886 246.51421,185.789403 246.51421,185.326353 L246.51421,172.259568 C246.51421,171.796036 246.134799,171.416518 245.670322,171.416518" id="Fill-85" fill="#E6E7E8"></path>
                    <path d="M214.92294,189.986302 L202.326973,189.986302 L202.326973,204.73967 L214.92294,204.73967 C215.386933,204.73967 215.766344,204.35967 215.766344,203.895172 L215.766344,190.829352 C215.766344,190.36582 215.386933,189.986302 214.92294,189.986302" id="Fill-86" fill="#E6E7E8"></path>
                    <polygon id="Fill-87" fill="#E6E7E8" points="202.32736 210.578729 215.766731 210.578729 215.766731 209.683532 202.32736 209.683532"></polygon>
                    <polygon id="Fill-88" fill="#E6E7E8" points="202.32736 213.521677 215.766731 213.521677 215.766731 212.627446 202.32736 212.627446"></polygon>
                    <polygon id="Fill-89" fill="#E6E7E8" points="202.32736 216.464625 215.766731 216.464625 215.766731 215.570877 202.32736 215.570877"></polygon>
                    <path d="M384.163135,229.548508 C383.463762,229.191685 382.674006,228.983578 381.838335,228.983578 L365.560389,228.983578 L365.559422,228.983578 L349.282442,228.983578 C348.446288,228.983578 347.656049,229.191685 346.95716,229.548508 L346.95716,174.787466 C347.41632,174.957428 347.907379,175.06462 348.425505,175.06462 L365.559422,175.06462 L365.560389,175.06462 L382.694789,175.06462 C383.211949,175.06462 383.703008,174.957428 384.163135,174.787466 L384.163135,229.548508 Z M382.694789,166.50617 L365.560389,166.50617 L365.559422,166.50617 L348.425505,166.50617 C346.442417,166.50617 344.142751,167.806475 344.142751,169.716132 L344.142751,234.118648 C344.142751,236.942333 346.45595,239.254201 349.282442,239.254201 L365.559422,239.254201 L365.560389,239.254201 L381.838335,239.254201 C384.663377,239.254201 386.97706,236.942333 386.97706,234.118648 L386.97706,169.716132 C386.97706,167.806475 384.677877,166.50617 382.694789,166.50617 L382.694789,166.50617 Z" id="Fill-90" fill="#134F78"></path>
                    <path d="M382.694741,166.505929 L365.56034,166.505929 L365.559374,166.505929 L365.559374,175.064861 L365.56034,175.064861 L382.694741,175.064861 C383.2119,175.064861 383.70296,174.95767 384.163086,174.787225 L384.163086,229.548267 C383.463713,229.191443 382.673958,228.98382 381.83877,228.98382 L365.56034,228.98382 L365.559374,228.98382 L365.559374,239.253959 L365.56034,239.253959 L381.83877,239.253959 C384.663329,239.253959 386.977012,236.942574 386.977012,234.118407 L386.977012,169.715891 C386.977012,167.806234 384.678312,166.505929 382.694741,166.505929" id="Fill-91" fill="#0D3754"></path>
                    <polygon id="Fill-92" fill="#CBCFD3" points="360.422727 235.295248 370.694861 235.295248 370.694861 232.301118 360.422727 232.301118"></polygon>
                    <polygon id="Fill-93" fill="#0090D1" points="345.952421 230.39291 385.349314 230.39291 385.349314 173.210394 345.952421 173.210394"></polygon>
                    <polygon id="Fill-94" fill="#0071A4" points="365.559519 230.39291 385.349314 230.39291 385.349314 173.210394 365.559519 173.210394"></polygon>
                    <path d="M374.974763,233.797459 C374.974763,234.540559 374.371089,235.143151 373.6258,235.143151 C372.882927,235.143151 372.278286,234.540559 372.278286,233.797459 C372.278286,233.054358 372.882927,232.450801 373.6258,232.450801 C374.371089,232.450801 374.974763,233.054358 374.974763,233.797459" id="Fill-95" fill="#CBCFD3"></path>
                    <path d="M382.133551,181.948076 C382.133551,182.60861 381.593192,183.150363 380.931035,183.150363 L350.260598,183.150363 C349.598441,183.150363 349.058566,182.60861 349.058566,181.948076 L349.058566,178.343146 C349.058566,177.683578 349.598441,177.141825 350.260598,177.141825 L380.931035,177.141825 C381.593192,177.141825 382.133551,177.683578 382.133551,178.343146 L382.133551,181.948076 Z" id="Fill-96" fill="#FFFFFF"></path>
                    <polygon id="Fill-97" fill="#FFFFFF" points="349.058759 220.82676 358.842733 220.82676 358.842733 220.314943 349.058759 220.314943"></polygon>
                    <polygon id="Fill-98" fill="#E6E7E8" points="366.465272 220.82676 376.25118 220.82676 376.25118 220.314943 366.465272 220.314943"></polygon>
                    <polygon id="Fill-99" fill="#FFFFFF" points="349.058759 222.64709 358.842733 222.64709 358.842733 222.135273 349.058759 222.135273"></polygon>
                    <polygon id="Fill-100" fill="#FFFFFF" points="349.058276 217.28122 364.554683 217.28122 364.554683 216.770368 349.058276 216.770368"></polygon>
                    <polygon id="Fill-101" fill="#E6E7E8" points="366.63492 217.28122 382.133744 217.28122 382.133744 216.770368 366.63492 216.770368"></polygon>
                    <polygon id="Fill-102" fill="#FFFFFF" points="349.058276 219.201017 364.554683 219.201017 364.554683 218.690165 349.058276 218.690165"></polygon>
                    <polygon id="Fill-103" fill="#E6E7E8" points="366.63492 219.201017 382.133744 219.201017 382.133744 218.690165 366.63492 218.690165"></polygon>
                    <polygon id="Fill-104" fill="#E6E7E8" points="366.63492 224.440381 382.133744 224.440381 382.133744 223.930013 366.63492 223.930013"></polygon>
                    <polygon id="Fill-105" fill="#E6E7E8" points="366.465272 222.64709 381.962163 222.64709 381.962163 222.135273 366.465272 222.135273"></polygon>
                    <polygon id="Fill-106" fill="#FFFFFF" points="349.058276 224.440381 364.554683 224.440381 364.554683 223.930013 349.058276 223.930013"></polygon>
                    <polygon id="Fill-107" fill="#FFFFFF" points="349.058276 215.361906 364.554683 215.361906 364.554683 214.850572 349.058276 214.850572"></polygon>
                    <polygon id="Fill-108" fill="#E6E7E8" points="366.63492 215.361906 382.133744 215.361906 382.133744 214.850572 366.63492 214.850572"></polygon>
                    <path d="M382.243508,211.359255 C382.243508,211.624821 382.026011,211.843067 381.759698,211.843067 L367.17726,211.843067 C366.911914,211.843067 366.693934,211.624821 366.693934,211.359255 L366.693934,203.864999 C366.693934,203.597985 366.911914,203.380704 367.17726,203.380704 L381.759698,203.380704 C382.026011,203.380704 382.243508,203.597985 382.243508,203.864999 L382.243508,211.359255 Z" id="Fill-109" fill="#E6E7E8"></path>
                    <path d="M364.607318,211.359255 C364.607318,211.624821 364.388371,211.843067 364.122058,211.843067 L349.541554,211.843067 C349.275241,211.843067 349.058711,211.624821 349.058711,211.359255 L349.058711,203.864999 C349.058711,203.597985 349.275241,203.380704 349.541554,203.380704 L364.122058,203.380704 C364.388371,203.380704 364.607318,203.597985 364.607318,203.864999 L364.607318,211.359255 Z" id="Fill-110" fill="#FFFFFF"></path>
                    <path d="M381.501553,186.79397 L364.665848,186.79397 L361.265648,186.79397 L349.783748,186.79397 C349.384038,186.79397 349.058759,187.120374 349.058759,187.518239 L349.058759,198.7589 C349.058759,199.158213 349.384038,199.4851 349.783748,199.4851 L361.265648,199.4851 L364.665848,199.4851 L381.501553,199.4851 C381.902231,199.4851 382.228476,199.158213 382.228476,198.7589 L382.228476,187.518239 C382.228476,187.120374 381.902231,186.79397 381.501553,186.79397" id="Fill-111" fill="#FFFFFF"></path>
                    <path d="M380.93089,177.141776 L365.559664,177.141776 L365.559664,183.150315 L380.93089,183.150315 C381.593047,183.150315 382.133406,182.608562 382.133406,181.948028 L382.133406,178.343098 C382.133406,177.68353 381.593047,177.141776 380.93089,177.141776" id="Fill-112" fill="#E6E7E8"></path>
                    <path d="M381.501553,186.79397 L365.560002,186.79397 L365.560002,199.4851 L381.501553,199.4851 C381.902231,199.4851 382.228476,199.158213 382.228476,198.7589 L382.228476,187.518239 C382.228476,187.120374 381.902231,186.79397 381.501553,186.79397" id="Fill-113" fill="#E6E7E8"></path>
                    <polygon id="Fill-114" fill="#0090D1" points="1.90430561 229.06737 58.2649852 229.06737 58.2649852 164.37418 1.90430561 164.37418"></polygon>
                    <polygon id="Fill-115" fill="#0071A4" points="30.1179949 229.06737 58.2645019 229.06737 58.2645019 164.37418 30.1179949 164.37418"></polygon>
                    <path d="M56.2775475,227.420188 L30.1170283,227.420188 L3.95602575,227.420188 L3.95602575,167.380671 C4.60513297,167.568981 5.29580625,167.688244 6.02321233,167.688244 L30.1170283,167.688244 L54.2118109,167.688244 C54.9397003,167.688244 55.6298902,167.568981 56.2775475,167.380671 L56.2775475,227.420188 Z M54.2118109,158.205626 L30.1170283,158.205626 L6.02321233,158.205626 C3.23248628,158.205626 0,159.493377 0,161.761789 L0,233.110048 C0,236.240341 3.25181933,238.799426 7.22862811,238.799426 L30.1170283,238.799426 L53.0073618,238.799426 C56.9832039,238.799426 60.2340566,236.240341 60.2340566,233.110048 L60.2340566,161.761789 C60.2340566,159.493377 57.0030203,158.205626 54.2118109,158.205626 L54.2118109,158.205626 Z" id="Fill-116" fill="#134F78"></path>
                    <path d="M54.2116176,158.20582 L30.116835,158.20582 L30.1163516,158.20582 L30.1163516,167.688437 L30.116835,167.688437 L54.2116176,167.688437 C54.9399903,167.688437 55.6301802,167.569174 56.2773542,167.380864 L56.2773542,227.420381 L30.116835,227.420381 L30.1163516,227.420381 L30.1163516,238.799619 L30.116835,238.799619 L53.0071684,238.799619 C56.9830106,238.799619 60.2338632,236.240051 60.2338632,233.110241 L60.2338632,161.761499 C60.2338632,159.493571 57.0028269,158.20582 54.2116176,158.20582" id="Fill-117" fill="#0D3754"></path>
                    <path d="M30.1182366,235.790811 C28.532443,235.790811 27.2463117,234.505957 27.2463117,232.922221 C27.2463117,231.33752 28.532443,230.052183 30.1182366,230.052183 C31.7045135,230.052183 32.9891948,231.33752 32.9891948,232.922221 C32.9891948,234.505957 31.7045135,235.790811 30.1182366,235.790811" id="Fill-118" fill="#CBCFD3"></path>
                    <path d="M30.1182366,230.05228 L30.1172699,230.05228 L30.1172699,235.790907 L30.1182366,235.790907 C31.7045135,235.790907 32.9891948,234.506053 32.9891948,232.921835 C32.9891948,231.337616 31.7045135,230.05228 30.1182366,230.05228" id="Fill-119" fill="#B2B5B9"></path>
                    <path d="M37.6277256,234.608224 C36.6958725,234.608224 35.9394669,233.853535 35.9394669,232.922125 C35.9394669,231.990231 36.6958725,231.23506 37.6277256,231.23506 C38.5600621,231.23506 39.3150177,231.990231 39.3150177,232.922125 C39.3150177,233.853535 38.5600621,234.608224 37.6277256,234.608224" id="Fill-120" fill="#B2B5B9"></path>
                    <path d="M22.6094242,234.608224 C21.6770878,234.608224 20.9206821,233.853535 20.9206821,232.922125 C20.9206821,231.990231 21.6770878,231.23506 22.6094242,231.23506 C23.5403107,231.23506 24.296233,231.990231 24.296233,232.922125 C24.296233,233.853535 23.5403107,234.608224 22.6094242,234.608224" id="Fill-121" fill="#CBCFD3"></path>
                    <path d="M33.1151496,173.753083 C33.1151496,174.245586 32.7115722,174.649245 32.2185794,174.649245 L9.3248626,174.649245 C8.83138645,174.649245 8.42732566,174.245586 8.42732566,173.753083 L8.42732566,171.062663 C8.42732566,170.569194 8.83138645,170.164569 9.3248626,170.164569 L32.2185794,170.164569 C32.7115722,170.164569 33.1151496,170.569194 33.1151496,171.062663 L33.1151496,173.753083 Z" id="Fill-122" fill="#FFFFFF"></path>
                    <path d="M51.6260152,207.243443 C51.6260152,207.588679 51.3437526,207.872109 50.996241,207.872109 L32.0150507,207.872109 C31.6685057,207.872109 31.3852765,207.588679 31.3852765,207.243443 L31.3852765,197.487052 C31.3852765,197.139886 31.6685057,196.856455 32.0150507,196.856455 L50.996241,196.856455 C51.3437526,196.856455 51.6260152,197.139886 51.6260152,197.487052 L51.6260152,207.243443 Z" id="Fill-123" fill="#FFFFFF"></path>
                    <path d="M28.6677744,207.243443 C28.6677744,207.588679 28.3850285,207.872109 28.0384835,207.872109 L9.05680984,207.872109 C8.71026488,207.872109 8.427519,207.588679 8.427519,207.243443 L8.427519,197.487052 C8.427519,197.139886 8.71026488,196.856455 9.05680984,196.856455 L28.0384835,196.856455 C28.3850285,196.856455 28.6677744,197.139886 28.6677744,197.487052 L28.6677744,207.243443 Z" id="Fill-124" fill="#FFFFFF"></path>
                    <polygon id="Fill-125" fill="#FFFFFF" points="31.1624631 219.370368 43.944027 219.370368 43.944027 218.701626 31.1624631 218.701626"></polygon>
                    <polygon id="Fill-126" fill="#FFFFFF" points="31.3852765 214.741321 51.6260152 214.741321 51.6260152 214.073545 31.3852765 214.073545"></polygon>
                    <polygon id="Fill-127" fill="#FFFFFF" points="31.3852765 217.248742 51.6260152 217.248742 51.6260152 216.579517 31.3852765 216.579517"></polygon>
                    <polygon id="Fill-128" fill="#FFFFFF" points="31.3852765 224.091156 51.6260152 224.091156 51.6260152 223.422897 31.3852765 223.422897"></polygon>
                    <polygon id="Fill-129" fill="#FFFFFF" points="31.1629464 221.748386 51.4036851 221.748386 51.4036851 221.081093 31.1629464 221.081093"></polygon>
                    <polygon id="Fill-130" fill="#FFFFFF" points="31.3852765 212.232935 51.6260152 212.232935 51.6260152 211.564193 31.3852765 211.564193"></polygon>
                    <path d="M50.4049396,177.618653 L28.6214234,177.618653 L24.2226707,177.618653 L9.36570367,177.618653 C8.84999451,177.618653 8.42756733,178.041144 8.42756733,178.556341 L8.42756733,193.100152 C8.42756733,193.617281 8.84999451,194.038806 9.36570367,194.038806 L24.2226707,194.038806 L28.6214234,194.038806 L50.4049396,194.038806 C50.9216154,194.038806 51.3435593,193.617281 51.3435593,193.100152 L51.3435593,178.556341 C51.3435593,178.041144 50.9216154,177.618653 50.4049396,177.618653" id="Fill-131" fill="#FFFFFF"></path>
                    <polygon id="Fill-132" fill="#FFFFFF" points="28.6677744 211.564097 9.32553926 211.564097 8.427519 211.564097 8.427519 212.232839 10.2337094 212.232839 28.6677744 212.232839 28.6682577 212.232839 28.6682577 211.564097"></polygon>
                    <polygon id="Fill-133" fill="#FFFFFF" points="13.4080515 214.073545 8.427374 214.073545 8.427374 214.741321 13.4080515 214.741321 28.6676294 214.741321 28.668596 214.741321 28.668596 214.073545 28.6676294 214.073545"></polygon>
                    <polygon id="Fill-134" fill="#FFFFFF" points="21.2078263 219.370272 21.2083096 219.370272 21.2083096 218.70153 21.2078263 218.70153 13.4079065 218.70153 8.42771233 218.70153 8.42771233 219.370272 13.4079065 219.370272"></polygon>
                    <polygon id="Fill-135" fill="#FFFFFF" points="13.4080515 216.579759 8.427374 216.579759 8.427374 217.248983 13.4080515 217.248983 28.6676294 217.248983 28.668596 217.248983 28.668596 216.579759 28.6676294 216.579759"></polygon>
                    <polygon id="Fill-136" fill="#FFFFFF" points="16.2270521 221.748193 21.2077296 221.748193 21.2077296 221.0809 16.2270521 221.0809 13.4078098 221.0809 8.42761566 221.0809 8.42761566 221.748193 13.4078098 221.748193"></polygon>
                    <polygon id="Fill-137" fill="#FFFFFF" points="13.4080515 223.423042 8.427374 223.423042 8.427374 224.091301 13.4080515 224.091301 23.6879185 224.091301 28.6676294 224.091301 28.6676294 223.423042 23.6879185 223.423042"></polygon>
                    <path d="M50.3180859,170.164714 L33.5369968,170.164714 C33.6534785,170.441868 33.7187275,170.74413 33.7187275,171.062325 L33.7187275,173.753227 C33.7187275,174.07094 33.6534785,174.373202 33.5369968,174.64939 L50.3180859,174.64939 C50.8115621,174.64939 51.2161062,174.245248 51.2161062,173.753227 L51.2161062,171.062325 C51.2161062,170.569339 50.8115621,170.164714 50.3180859,170.164714" id="Fill-138" fill="#FFFFFF"></path>
                </g>
            </g>
        </g>
    </g>
</svg>