<?xml version="1.0" encoding="UTF-8" standalone="no"?>
<svg width="48px" height="48px" viewBox="0 0 48 48" version="1.1" xmlns="http://www.w3.org/2000/svg" xmlns:xlink="http://www.w3.org/1999/xlink">
    <!-- Generator: Sketch 42 (36781) - http://www.bohemiancoding.com/sketch -->
    <title>icon_zarz on</title>
    <desc>Created with Sketch.</desc>
    <defs></defs>
    <g id="Page-1" stroke="none" stroke-width="1" fill="none" fill-rule="evenodd">
        <g id="Aplikacje.gov.pl---strona-główna" transform="translate(-715.000000, -663.000000)">
            <g id="Ezd" transform="translate(332.000000, 611.000000)">
                <g id="Zarządzanie-projektami" transform="translate(384.000000, 53.000000)">
                    <g id="icon_zarz-on">
                        <path d="M14.7096774,22.4516129 C14.7096774,20.7483871 16.1032258,19.3548387 17.8064516,19.3548387 L42.5806452,19.3548387 C44.283871,19.3548387 45.6774194,20.7483871 45.6774194,22.4516129 L45.6774194,39.483871 C45.6774194,41.1870968 44.283871,42.5806452 42.5806452,42.5806452 L17.8064516,42.5806452 C16.1032258,42.5806452 14.7096774,41.1870968 14.7096774,39.483871 L14.7096774,22.4516129 Z" id="Stroke-1" stroke="#000000" stroke-width="2" stroke-linecap="round" stroke-linejoin="round"></path>
                        <path d="M30,42.5806452 L30,45.6774194" id="Stroke-3" stroke="#000000" stroke-width="2" stroke-linecap="round" stroke-linejoin="round"></path>
                        <path d="M22.4516129,46 L37.9354839,46" id="Stroke-5" stroke="#000000" stroke-width="2" stroke-linecap="round" stroke-linejoin="round"></path>
                        <path d="M14.7096774,36 L45.6774194,36" id="Stroke-8" stroke="#000000" stroke-width="2" stroke-linecap="round" stroke-linejoin="round"></path>
                        <path d="M29,39 C29,39.552 29.448,40 30,40 C30.552,40 31,39.552 31,39 C31,38.448 30.552,38 30,38 C29.448,38 29,38.448 29,39 Z" id="Fill-10" fill="#0078B0"></path>
                        <path d="M5.41935484,22 L10.0645161,22" id="Stroke-12" stroke="#000000" stroke-width="2" stroke-linecap="round" stroke-linejoin="round"></path>
                        <path d="M0.774193548,13.7096774 L24,13.7096774 L24,3.09677419 C24,1.81470968 22.9594839,0.774193548 21.6774194,0.774193548 L3.09677419,0.774193548 C1.81470968,0.774193548 0.774193548,1.81470968 0.774193548,3.09677419 L0.774193548,15.483871 C0.774193548,16.7659355 1.81470968,17.8064516 3.09677419,17.8064516 L10.0645161,17.8064516" id="Stroke-14" stroke="#0078B0" stroke-width="2" stroke-linecap="round" stroke-linejoin="round"></path>
                    </g>
                </g>
            </g>
        </g>
    </g>
</svg>