<?xml version="1.0" encoding="UTF-8" standalone="no"?>
<svg width="50px" height="48px" viewBox="0 0 50 48" version="1.1" xmlns="http://www.w3.org/2000/svg" xmlns:xlink="http://www.w3.org/1999/xlink">
    <!-- Generator: Sketch 42 (36781) - http://www.bohemiancoding.com/sketch -->
    <title>icon_konsola on</title>
    <desc>Created with Sketch.</desc>
    <defs></defs>
    <g id="Page-1" stroke="none" stroke-width="1" fill="none" fill-rule="evenodd" stroke-linecap="round" stroke-linejoin="round">
        <g id="Aplikacje.gov.pl---strona-główna" transform="translate(-1385.000000, -665.000000)" stroke-width="2">
            <g id="Ezd" transform="translate(332.000000, 611.000000)">
                <g id="Konsola-administracyjna" transform="translate(1054.000000, 55.000000)">
                    <g id="icon_konsola-on">
                        <path d="M46.3994483,0 C47.2791724,0 48,0.873191489 48,1.94042553 L48,36.8680851 C48,37.9353191 47.2791724,38.8085106 46.3994483,38.8085106 L1.59972414,38.8085106 C0.72,38.8085106 0,37.9353191 0,36.8680851 L0,1.94042553 C0,0.873191489 0.72,0 1.59972414,0 L46.3994483,0 Z" id="Stroke-1" stroke="#000000"></path>
                        <path d="M41.6382979,46 L11,46" id="Stroke-3" stroke="#000000"></path>
                        <path d="M12.3018553,11.7446809 L12.2987915,17.106383" id="Stroke-5" stroke="#0078B0"></path>
                        <path d="M22.5106383,17.106383 L22.5075745,11.7446809" id="Stroke-7" stroke="#0078B0"></path>
                        <path d="M22.5106383,11.7446809 C22.1450213,9.7133617 19.6428936,8.17021277 17.4042553,8.17021277 C15.1645957,8.17021277 12.6645106,9.71642553 12.2988936,11.7446809" id="Stroke-9" stroke="#0078B0"></path>
                        <path d="M22.5006298,17.106383 C22.5006298,17.106383 22.7426723,20.1283404 20.8083745,22.4680851" id="Stroke-11" stroke="#0078B0"></path>
                        <path d="M12.3078809,17.106383 C12.3078809,17.106383 12.0668596,20.1283404 14.0032,22.4680851" id="Stroke-13" stroke="#0078B0"></path>
                        <polyline id="Stroke-15" stroke="#0078B0" points="28.6382979 26.5531915 28.6382979 26.5531915 20.8071489 22.4680851"></polyline>
                        <path d="M14.0022809,22.4680851 L6.17011064,26.5531915" id="Stroke-17" stroke="#0078B0"></path>
                        <path d="M6.17021277,26.5531915 L6.17021277,28.5957447 C6.17021277,29.7191489 7.0107234,30.6382979 8.04221277,30.6382979 L26.7652766,30.6382979 C27.7957447,30.6382979 28.6382979,29.7191489 28.6382979,28.5957447 L28.6382979,26.5531915" id="Stroke-19" stroke="#0078B0"></path>
                        <path d="M27.7234043,10.212766 L42.7234043,10.212766" id="Stroke-21" stroke="#000000"></path>
                        <path d="M27.7234043,16.3404255 L37.7234043,16.3404255" id="Stroke-23" stroke="#000000"></path>
                        <path d="M25,39 L25,46" id="Stroke-25" stroke="#000000"></path>
                    </g>
                </g>
            </g>
        </g>
    </g>
</svg>