<?xml version="1.0" encoding="UTF-8" standalone="no"?>
<svg width="50px" height="50px" viewBox="0 0 50 50" version="1.1" xmlns="http://www.w3.org/2000/svg" xmlns:xlink="http://www.w3.org/1999/xlink">
    <!-- Generator: Sketch 42 (36781) - http://www.bohemiancoding.com/sketch -->
    <title>icon_rejestry off</title>
    <desc>Created with Sketch.</desc>
    <defs></defs>
    <g id="Page-1" stroke="none" stroke-width="1" fill="none" fill-rule="evenodd" stroke-linecap="round" stroke-linejoin="round">
        <g id="Aplikacje.gov.pl---strona-główna" transform="translate(-458.000000, -661.000000)" stroke-width="2" stroke="#8C8C8C">
            <g id="Ezd" transform="translate(332.000000, 611.000000)">
                <g id="Tworzenie-rejestrów" transform="translate(127.000000, 51.000000)">
                    <g id="icon_rejestry-off">
                        <polygon id="Stroke-1" points="24.8 28 42.4 28 47.2 32.8 47.2 47.2 24.8 47.2"></polygon>
                        <polyline id="Stroke-3" points="18.4 47.2 0.8 47.2 0.8 7.2 8.8 7.2"></polyline>
                        <polyline id="Stroke-6" points="24.8 7.2 32.8 7.2 32.8 21.6"></polyline>
                        <polyline id="Stroke-9" points="28.6 21.6 28.6 10.4 24.8 10.4"></polyline>
                        <polyline id="Stroke-11" points="8.8 10.4 5 10.4 5 42.4 19.4 42.4"></polyline>
                        <path d="M21.6,5.6 C21.6,2.4 19.2,0.8 16.8,0.8 C14.4,0.8 12,2.4 12,5.6 L8.8,5.6 L8.8,12 L24.8,12 L24.8,5.6 L21.6,5.6 Z" id="Stroke-7"></path>
                        <path d="M29.6,42 L42.4,42" id="Stroke-13"></path>
                        <path d="M29.6,39 L42.4,39" id="Stroke-15"></path>
                        <path d="M29.6,36 L42.4,36" id="Stroke-17"></path>
                        <path d="M29.6,32 L39.2,32" id="Stroke-19"></path>
                    </g>
                </g>
            </g>
        </g>
    </g>
</svg>