<?xml version="1.0" encoding="UTF-8" standalone="no"?>
<svg width="50px" height="50px" viewBox="0 0 50 50" version="1.1" xmlns="http://www.w3.org/2000/svg" xmlns:xlink="http://www.w3.org/1999/xlink">
    <!-- Generator: Sketch 42 (36781) - http://www.bohemiancoding.com/sketch -->
    <title>icon_ezd off</title>
    <desc>Created with Sketch.</desc>
    <defs></defs>
    <g id="Page-1" stroke="none" stroke-width="1" fill="none" fill-rule="evenodd">
        <g id="Aplikacje.gov.pl---strona-główna" transform="translate(-354.000000, -661.000000)">
            <g id="Ezd" transform="translate(332.000000, 611.000000)">
                <g id="EZD" transform="translate(0.000000, 40.000000)">
                    <g id="icon_ezd-off" transform="translate(23.000000, 11.000000)">
                        <path d="M47.8823529,47.8823529 L41.2941176,39.6470588 L41.2941176,29.7647059 C41.2941176,26.2449412 38.6901176,23.2818824 34.7058824,19.8823529" id="Stroke-5" stroke="#8C8C8C" stroke-width="2" stroke-linecap="round"></path>
                        <path d="M33.1924,41.2941176 L3.41192941,41.2941176 C1.60016471,41.2941176 0.117811765,39.8117647 0.117811765,38 L0.117811765,3.41176471 C0.117811765,1.6 1.60016471,0.117647059 3.41192941,0.117647059 L31.4119294,0.117647059 C33.2220471,0.117647059 34.7060471,1.6 34.7060471,3.41176471 L34.7060471,32.2352941" id="Stroke-1" stroke="#8C8C8C" stroke-width="2" stroke-linecap="round"></path>
                        <polyline id="Stroke-3" stroke="#8C8C8C" stroke-width="2" stroke-linecap="round" points="29.7647059 28.3243529 29.7647059 5.058 5.05882353 5.058 5.05882353 34.7050588 29.7647059 34.7050588 29.7647059 34.43"></polyline>
                        <path d="M36.3529412,33.8823529 L31.4117647,28.9411765 C30.5882353,28.1176471 28.9411765,28.1176471 28.1176471,28.9411765 C27.2941176,29.7647059 27.2941176,31.4117647 28.1176471,32.2352941 L33.0588235,38.8235294 L33.0588235,40.4705882 C33.0588235,42.9411765 37.1764706,47.8823529 37.1764706,47.8823529" id="Stroke-7" stroke="#8C8C8C" stroke-width="2" stroke-linecap="round"></path>
                        <path d="M14.1176471,38 L20.7058824,38" id="Stroke-9" stroke="#8C8C8C"></path>
                        <path d="M10,16.5882353 L24.8235294,16.5882353" id="Stroke-11" stroke="#8C8C8C" stroke-width="2"></path>
                        <path d="M10,13.0588235 L24.8235294,13.0588235" id="Stroke-13" stroke="#8C8C8C" stroke-width="2"></path>
                        <path d="M10,22.9411765 L24.8235294,22.9411765" id="Stroke-15" stroke="#8C8C8C" stroke-width="2"></path>
                        <path d="M10,19.7647059 L24.8235294,19.7647059" id="Stroke-17" stroke="#8C8C8C" stroke-width="2"></path>
                        <path d="M10,26.4705882 L24.8235294,26.4705882" id="Stroke-19" stroke="#8C8C8C" stroke-width="2"></path>
                        <path d="M10,9.88235294 L18.2352941,9.88235294" id="Stroke-21" stroke="#8C8C8C" stroke-width="2"></path>
                        <path d="M23.1764706,37.1764706 C22.7218824,37.1764706 22.3529412,37.5454118 22.3529412,38 C22.3529412,38.4545882 22.7218824,38.8235294 23.1764706,38.8235294 C23.6310588,38.8235294 24,38.4545882 24,38 C24,37.5454118 23.6310588,37.1764706 23.1764706,37.1764706" id="Fill-23" fill="#8C8C8C"></path>
                        <path d="M11.6470588,37.1764706 C11.1924706,37.1764706 10.8235294,37.5454118 10.8235294,38 C10.8235294,38.4545882 11.1924706,38.8235294 11.6470588,38.8235294 C12.1016471,38.8235294 12.4705882,38.4545882 12.4705882,38 C12.4705882,37.5454118 12.1016471,37.1764706 11.6470588,37.1764706" id="Fill-25" fill="#8C8C8C"></path>
                    </g>
                </g>
            </g>
        </g>
    </g>
</svg>