<?xml version="1.0" encoding="UTF-8" standalone="no"?>
<svg width="40px" height="50px" viewBox="0 0 40 50" version="1.1" xmlns="http://www.w3.org/2000/svg" xmlns:xlink="http://www.w3.org/1999/xlink">
    <!-- Generator: Sketch 42 (36781) - http://www.bohemiancoding.com/sketch -->
    <title>icon_podglad on</title>
    <desc>Created with Sketch.</desc>
    <defs></defs>
    <g id="Page-1" stroke="none" stroke-width="1" fill="none" fill-rule="evenodd">
        <g id="Aplikacje.gov.pl---strona-główna" transform="translate(-562.000000, -662.000000)" stroke-width="2">
            <g id="Ezd" transform="translate(332.000000, 611.000000)">
                <g id="Podgląd-spraw" transform="translate(231.000000, 52.000000)">
                    <g id="icon_podglad-on">
                        <path d="M4.87972881,0 L34.1694915,0" id="Stroke-1" stroke="#000000" stroke-linecap="round" stroke-linejoin="round"></path>
                        <path d="M4.87972881,0 C2.1860339,0 0,2.18766102 0,4.88135593 C0,7.57667797 2.1860339,9.76271186 4.87972881,9.76271186" id="Stroke-3" stroke="#000000" stroke-linecap="round" stroke-linejoin="round"></path>
                        <path d="M34.1694915,0 C31.4757966,0 29.2897627,2.18766102 29.2897627,4.88135593 C29.2897627,7.57667797 31.4757966,9.76271186 34.1694915,9.76271186" id="Stroke-5" stroke="#000000" stroke-linecap="round" stroke-linejoin="round"></path>
                        <path d="M4.87972881,9.76271186 L34.1694915,9.76271186" id="Stroke-7" stroke="#000000" stroke-linecap="round" stroke-linejoin="round"></path>
                        <path d="M0,42.5259661 L0,5.25030508" id="Stroke-9" stroke="#000000" stroke-linecap="round" stroke-linejoin="round"></path>
                        <path d="M34.1694915,9.76271186 L34.1694915,26.8474576" id="Stroke-11" stroke="#000000" stroke-linecap="round" stroke-linejoin="round"></path>
                        <path d="M0,42.5259661 C0,45.0984407 2.0859661,47.1868475 4.65925424,47.1868475" id="Stroke-13" stroke="#000000" stroke-linecap="round" stroke-linejoin="round"></path>
                        <path d="M21.1525424,47.1864407 L4.65925424,47.1864407" id="Stroke-15" stroke="#000000" stroke-linecap="round" stroke-linejoin="round"></path>
                        <path d="M34.9830508,37.4237288 C34.9830508,33.832678 32.0688814,30.9152542 28.4745763,30.9152542 C24.8818983,30.9152542 21.9661017,33.832678 21.9661017,37.4237288 C21.9661017,41.0180339 24.8818983,43.9322034 28.4745763,43.9322034 C32.0688814,43.9322034 34.9830508,41.0180339 34.9830508,37.4237288 Z" id="Stroke-17" stroke="#0078B0" stroke-linecap="round" stroke-linejoin="round"></path>
                        <path d="M32.706061,42.4671458 L37.4238915,47.1866034" id="Stroke-19" stroke="#0078B0" stroke-linecap="round" stroke-linejoin="round"></path>
                        <path d="M7,22.5882353 L27,22.5882353" id="Stroke-11" stroke="#0078B0"></path>
                        <path d="M7,19.0588235 L27,19.0588235" id="Stroke-13" stroke="#0078B0"></path>
                        <path d="M7,15.8823529 L19,15.8823529" id="Stroke-21" stroke="#0078B0"></path>
                    </g>
                </g>
            </g>
        </g>
    </g>
</svg>