<?xml version="1.0" encoding="UTF-8" standalone="no"?>
<svg width="50px" height="50px" viewBox="0 0 50 50" version="1.1" xmlns="http://www.w3.org/2000/svg" xmlns:xlink="http://www.w3.org/1999/xlink">
    <!-- Generator: Sketch 42 (36781) - http://www.bohemiancoding.com/sketch -->
    <title>icon_urlp off</title>
    <desc>Created with Sketch.</desc>
    <defs>
        <polygon id="path-1" points="0 48 48 48 48 0 0 0"></polygon>
    </defs>
    <g id="Page-1" stroke="none" stroke-width="1" fill="none" fill-rule="evenodd">
        <g id="Aplikacje.gov.pl---strona-główna" transform="translate(-875.000000, -661.000000)">
            <g id="Ezd" transform="translate(332.000000, 611.000000)">
                <g id="Urlopy" transform="translate(544.000000, 51.000000)">
                    <g id="icon_urlp-off">
                        <path d="M47.2,45.6 C47.2,46.48 46.48,47.2 45.6,47.2 L2.4,47.2 C1.52,47.2 0.8,46.48 0.8,45.6 L0.8,7.2 C0.8,6.32 1.52,5.6 2.4,5.6 L45.6,5.6 C46.48,5.6 47.2,6.32 47.2,7.2 L47.2,45.6 Z" id="Stroke-1" stroke="#8C8C8C" stroke-width="2" stroke-linecap="round" stroke-linejoin="round"></path>
                        <path d="M16,0.8 L16,8.8" id="Stroke-3" stroke="#8C8C8C" stroke-width="2" stroke-linecap="round" stroke-linejoin="round"></path>
                        <path d="M32,0.8 L32,8.8" id="Stroke-5" stroke="#8C8C8C" stroke-width="2" stroke-linecap="round" stroke-linejoin="round"></path>
                        <mask id="mask-2" fill="white">
                            <use xlink:href="#path-1"></use>
                        </mask>
                        <g id="Clip-8"></g>
                        <polygon id="Stroke-7" stroke="#8C8C8C" stroke-width="2" stroke-linecap="round" stroke-linejoin="round" mask="url(#mask-2)" points="10.4 23.2 13.6 23.2 13.6 20 10.4 20"></polygon>
                        <polygon id="Stroke-9" stroke="#8C8C8C" stroke-width="2" stroke-linecap="round" stroke-linejoin="round" mask="url(#mask-2)" points="22.4 23.2 25.6 23.2 25.6 20 22.4 20"></polygon>
                        <polygon id="Stroke-10" stroke="#8C8C8C" stroke-width="2" stroke-linecap="round" stroke-linejoin="round" mask="url(#mask-2)" points="34.4 23.2 37.6 23.2 37.6 20 34.4 20"></polygon>
                        <polygon id="Stroke-11" stroke="#8C8C8C" stroke-width="2" stroke-linecap="round" stroke-linejoin="round" mask="url(#mask-2)" points="10.4 35.2 13.6 35.2 13.6 32 10.4 32"></polygon>
                        <polygon id="Stroke-12" stroke="#8C8C8C" stroke-width="2" stroke-linecap="round" stroke-linejoin="round" mask="url(#mask-2)" points="22.4 35.2 25.6 35.2 25.6 32 22.4 32"></polygon>
                        <path d="M39.2,30.4 L32.8,36.8" id="Stroke-13" stroke="#8C8C8C" stroke-width="2" stroke-linecap="round" stroke-linejoin="round" mask="url(#mask-2)"></path>
                        <path d="M39.2,36.8 L32.8,30.4" id="Stroke-14" stroke="#8C8C8C" stroke-width="2" stroke-linecap="round" stroke-linejoin="round" mask="url(#mask-2)"></path>
                    </g>
                </g>
            </g>
        </g>
    </g>
</svg>