<?xml version="1.0" encoding="UTF-8" standalone="no"?>
<svg width="33px" height="50px" viewBox="0 0 33 50" version="1.1" xmlns="http://www.w3.org/2000/svg" xmlns:xlink="http://www.w3.org/1999/xlink">
    <!-- Generator: Sketch 42 (36781) - http://www.bohemiancoding.com/sketch -->
    <title>icon_delegacje off</title>
    <desc>Created with Sketch.</desc>
    <defs></defs>
    <g id="Page-1" stroke="none" stroke-width="1" fill="none" fill-rule="evenodd">
        <g id="Aplikacje.gov.pl---strona-główna" transform="translate(-979.000000, -661.000000)" stroke-width="2" stroke="#8C8C8C">
            <g id="Ezd" transform="translate(332.000000, 611.000000)">
                <g id="Delegacje-off" transform="translate(648.000000, 51.000000)">
                    <g id="icon_delegacje-off">
                        <polyline id="Stroke-1" points="12.6524727 18.2727273 13.6833818 31.2212727 11.6199273 33.2847273 9.55647273 31.2212727 10.5890182 18.2727273"></polyline>
                        <path d="M11.7272727,15 C15.7936364,15 19.0909091,11.7027273 19.0909091,7.63636364 C19.0909091,3.57 15.7936364,0.272727273 11.7272727,0.272727273 C7.66090909,0.272727273 4.36363636,3.57 4.36363636,7.63636364 C4.36363636,11.7027273 7.66090909,15 11.7272727,15 Z" id="Stroke-2"></path>
                        <path d="M23.1818182,18.2727273 L0.272727273,18.2727273 C0.272727273,26.6689091 3.79909091,32.4534545 7.63636364,34.6363636 L7.63636364,47.7272727 L15.8181818,47.7272727 L15.8181818,34.6363636 C19.6521818,32.4534545 23.1818182,26.6689091 23.1818182,18.2727273 Z" id="Stroke-4"></path>
                        <polygon id="Stroke-6" points="27.2727273 33 30.5454545 33 30.5454545 47.7272727 24 47.7272727 24 33"></polygon>
                        <path d="M27.2727273,33 L27.2727273,30.5454545" id="Stroke-8"></path>
                    </g>
                </g>
            </g>
        </g>
    </g>
</svg>