<?xml version="1.0" encoding="UTF-8" standalone="no"?>
<svg width="50px" height="47px" viewBox="0 0 50 47" version="1.1" xmlns="http://www.w3.org/2000/svg" xmlns:xlink="http://www.w3.org/1999/xlink">
    <!-- Generator: Sketch 42 (36781) - http://www.bohemiancoding.com/sketch -->
    <title>icon_communication on</title>
    <desc>Created with Sketch.</desc>
    <defs></defs>
    <g id="Page-1" stroke="none" stroke-width="1" fill="none" fill-rule="evenodd" stroke-linecap="round" stroke-linejoin="round">
        <g id="Aplikacje.gov.pl---strona-główna" transform="translate(-1223.000000, -664.000000)" stroke-width="2">
            <g id="Ezd" transform="translate(332.000000, 611.000000)">
                <g id="Komunikator" transform="translate(892.000000, 54.000000)">
                    <g id="icon_communication-on">
                        <path d="M15.0471385,30.3589744 L19.2440615,30.3589744 L19.2407795,30.3589744 C29.6621128,30.3589744 38.1125744,23.5995897 38.1125744,15.2041026 C38.1125744,6.8094359 29.6621128,0 19.2407795,0 C8.81780513,0 0.368984615,6.8094359 0.368984615,15.2041026 C0.368984615,20.2486154 3.06190769,24.3109744 7.7536,27.0769231 C7.42211282,32.3987692 3.6510359,36.1025641 3.6510359,36.1025641 C3.6510359,36.1025641 10.9650872,35.5618462 15.0471385,30.3589744 Z" id="Stroke-1" stroke="#000000"></path>
                        <path d="M43.0358974,14.7692308 C46.3179487,17.2307692 47.9589744,20.865641 47.9589744,23.4092308 C47.9589744,28.4537436 45.2685128,32.5161026 40.574359,35.2820513 C40.9058462,40.6038974 44.6769231,44.3076923 44.6769231,44.3076923 C44.6769231,44.3076923 37.3628718,43.7669744 33.2808205,38.5641026 L29.0855385,38.5641026 L29.0888205,38.5641026 C25.0773333,38.5641026 20.8820513,37.7435897 17.6,35.2820513" id="Stroke-3" stroke="#0078B0"></path>
                        <path d="M10.1111795,12.3076923 L28.1624615,12.3076923" id="Stroke-5" stroke="#0078B0"></path>
                        <path d="M10.1111795,18.8717949 L24.0598974,18.8717949" id="Stroke-7" stroke="#0078B0"></path>
                    </g>
                </g>
            </g>
        </g>
    </g>
</svg>