
<svg width="49px" height="49px" viewBox="136 -1 49 49" version="1.1" xmlns="http://www.w3.org/2000/svg" xmlns:xlink="http://www.w3.org/1999/xlink">
    <!-- Generator: Sketch 42 (36781) - http://www.bohemiancoding.com/sketch -->
    <desc>Created with Sketch.</desc>
    <defs></defs>
    <g id="icon_przetarg" stroke="none" stroke-width="1" fill="none" fill-rule="evenodd" transform="translate(136.000000, 0.000000)">
        <polyline id="Stroke-3" stroke="#0090D1" stroke-width="2" stroke-linecap="round" stroke-linejoin="round" points="39.2 0.8 39.2 8.8 47.2 8.8"></polyline>
        <polygon id="Stroke-1" stroke="#0090D1" stroke-width="2" stroke-linejoin="round" points="47.2 8.8 39.2 0.8 24.8 0.8 24.8 31.2 47.2 31.2"></polygon>
        <polygon id="Stroke-5" stroke="#231F1F" stroke-width="2" stroke-linejoin="round" points="0.8 47.2 8.8688 47.2 8.8688 32.8 0.8 32.8"></polygon>
        <path d="M8.8696,45.6 L43.1656,45.6 C43.1656,42.1552 36.1048,39.128 28.036,39.2 L13.9128,39.2" id="Stroke-7" stroke="#231F1F" stroke-width="2" stroke-linecap="round" stroke-linejoin="round"></path>
        <path d="M8.8696,34.4 L15.9304,34.4 C20.676,35.0944 23.116,38.192 24.1256,39.2" id="Stroke-8" stroke="#231F1F" stroke-width="2" stroke-linejoin="round"></path>
        <path d="M4.8352,42.15456 C4.2768,42.15456 3.8272,42.60576 3.8272,43.16256 C3.8272,43.72096 4.2768,44.17216 4.8352,44.17216 C5.392,44.17216 5.8432,43.72096 5.8432,43.16256 C5.8432,42.60576 5.392,42.15456 4.8352,42.15456" id="Fill-9" fill="#0090D1"></path>
    </g>
</svg>
