
<svg width="50px" height="50px" viewBox="140 -1 50 50" version="1.1" xmlns="http://www.w3.org/2000/svg" xmlns:xlink="http://www.w3.org/1999/xlink">
    <!-- Generator: Sketch 42 (36781) - http://www.bohemiancoding.com/sketch -->
    <desc>Created with Sketch.</desc>
    <defs></defs>
    <g id="icon_easy" stroke="none" stroke-width="1" fill="none" fill-rule="evenodd" transform="translate(141.000000, 0.000000)" stroke-linecap="round" stroke-linejoin="round">
        <path d="M47.2,27.2 L47.2,10.616 C42.1568,15.6592 18.6432,15.6624 13.6,10.616 L13.6,27.2 C13.6,38.2912 26.3664,47.2 30.4,47.2 C34.4336,47.2 47.2,38.2912 47.2,27.2 Z" id="Stroke-1" stroke="#000000" stroke-width="2"></path>
        <path d="M34.4,8.8 L34.4,0.8 C30.1568,5.8432 5.8432,5.8464 0.8,0.8 L0.8,17.6 C0.8,22.5936 3.9088,27.6656 7.2,31.2" id="Stroke-3" stroke="#000000" stroke-width="2"></path>
        <path d="M24,33.6 C24,37.1344 26.8656,40 30.4,40 C33.9344,40 36.8,37.1344 36.8,33.6" id="Stroke-5" stroke="#0090D1" stroke-width="2"></path>
        <path d="M34.4,24.8 C34.4,23.032 35.8336,21.6 37.6,21.6 C39.368,21.6 40.8,23.032 40.8,24.8" id="Stroke-7" stroke="#0090D1" stroke-width="2"></path>
        <path d="M20,24.8 C20,23.032 21.4336,21.6 23.2,21.6 C24.968,21.6 26.4,23.032 26.4,24.8" id="Stroke-9" stroke="#0090D1" stroke-width="2"></path>
    </g>
</svg>
