
<svg width="60px" height="48px" viewBox="136 -1 60 48" version="1.1" xmlns="http://www.w3.org/2000/svg" xmlns:xlink="http://www.w3.org/1999/xlink">
    <!-- Generator: Sketch 42 (36781) - http://www.bohemiancoding.com/sketch -->
    <desc>Created with Sketch.</desc>
    <defs></defs>
    <g id="icon_prawo" stroke="none" stroke-width="1" fill="none" fill-rule="evenodd" transform="translate(137.000000, 0.000000)" stroke-linecap="round" stroke-linejoin="round">
        <path d="M28,8 L28,44" id="Stroke-1" stroke="#000000" stroke-width="2"></path>
        <path d="M24,4 L5,4" id="Stroke-9" stroke="#000000" stroke-width="2"></path>
        <path d="M32,4 L53,4" id="Stroke-10" stroke="#000000" stroke-width="2"></path>
        <polyline id="Stroke-6" stroke="#000000" stroke-width="2" points="1 24 9 4 17 24"></polyline>
        <path d="M20,44 L38,44" id="Stroke-3" stroke="#000000" stroke-width="2"></path>
        <path d="M32,4 C32,6.208 30.208,8 28,8 C25.79,8 24,6.208 24,4 C24,1.79 25.79,0 28,0 C30.208,0 32,1.79 32,4 Z" id="Stroke-11" stroke="#0090D1" stroke-width="2"></path>
        <path d="M18,24 L0,24 C0,28.97 4.03,33 9,33 C13.97,33 18,28.97 18,24 Z" id="Stroke-13" stroke="#0090D1" stroke-width="2"></path>
        <polyline id="Stroke-15" stroke="#000000" stroke-width="2" points="41 24 49 4 57 24"></polyline>
        <path d="M58,24 L40,24 C40,28.97 44.03,33 49,33 C53.97,33 58,28.97 58,24 Z" id="Stroke-17" stroke="#0090D1" stroke-width="2"></path>
    </g>
</svg>
