
<svg width="48px" height="49px" viewBox="141 -1 48 49" version="1.1" xmlns="http://www.w3.org/2000/svg" xmlns:xlink="http://www.w3.org/1999/xlink">
    <!-- Generator: Sketch 42 (36781) - http://www.bohemiancoding.com/sketch -->
    <desc>Created with Sketch.</desc>
    <defs></defs>
    <g id="Page-1" stroke="none" stroke-width="1" fill="none" fill-rule="evenodd" transform="translate(141.000000, 0.000000)">
        <path d="M12.8,13.6 C11.8728,12.2872 11.2,10.528 11.2,8.8 C11.2,4.384 14.784,0.8 19.2,0.8 C23.6168,0.8 27.2,4.384 27.2,8.8 C27.2,9.3592 27.1352,9.9032 27.0416,10.4312" id="Stroke-1" stroke="#0090D1" stroke-width="2" stroke-linecap="round" stroke-linejoin="round"></path>
        <polygon id="Fill-3" fill="#0090D1" points="33.6 24.8 36.8 24.8 36.8 21.6 33.6 21.6"></polygon>
        <path d="M6.98752,28 C1.14992,28 0.80032,21.6 0.80032,21.6" id="Stroke-5" stroke="#000000" stroke-width="2" stroke-linecap="round" stroke-linejoin="round"></path>
        <path d="M31.52192,41.6 L33.84912,47.2 L39.66352,45.0128 L37.54752,39.0032 L37.47792,39.028 C40.52112,37.0472 42.72032,34.3088 43.63152,31.2" id="Stroke-6" stroke="#000000" stroke-width="2" stroke-linecap="round" stroke-linejoin="round"></path>
        <path d="M43.63128,24.72816 C42.90168,22.23776 41.28488,20.08416 39.13048,18.27056 L39.17528,18.27056 C39.49928,12.91456 42.40008,10.40016 42.40008,10.40016 C42.40008,10.40016 36.72488,9.79216 32.74888,14.51376 C30.53208,13.79056 28.10408,13.60016 25.54728,13.60016 C15.29448,13.60016 6.98728,20.06736 6.98728,28.01376 C6.98728,32.47376 9.60248,36.45616 13.70888,39.09696 L11.62648,45.01216 L17.44088,47.20016 L19.55848,41.60016" id="Stroke-7" stroke="#000000" stroke-width="2" stroke-linecap="round" stroke-linejoin="round"></path>
        <polyline id="Stroke-8" stroke="#000000" stroke-width="2" stroke-linecap="round" stroke-linejoin="round" points="43.63128 31.2 47.20008 31.2 47.20008 24.8 43.63128 24.8"></polyline>
        <path d="M19.55864,41.6 C19.55864,41.6 21.84024,43.2 25.54744,43.2 C29.25384,43.2 31.52184,41.6 31.52184,41.6" id="Stroke-9" stroke="#000000" stroke-width="2" stroke-linecap="round" stroke-linejoin="round"></path>
    </g>
</svg>
