
<svg width="43px" height="50px" viewBox="143 -1 43 50" version="1.1" xmlns="http://www.w3.org/2000/svg" xmlns:xlink="http://www.w3.org/1999/xlink">
    <!-- Generator: Sketch 42 (36781) - http://www.bohemiancoding.com/sketch -->
    <desc>Created with Sketch.</desc>
    <defs></defs>
    <g id="icon-demo" stroke="none" stroke-width="1" fill="none" fill-rule="evenodd" transform="translate(144.000000, 0.000000)" stroke-linecap="round" stroke-linejoin="round">
        <path d="M8.94915254,47.1864407 L1.55227119,47.1864407 C0.698847458,47.1864407 0,46.4778305 0,45.6130169 L0,1.57342373 C0,0.708610169 0.698847458,0 1.55227119,0 L32.6172203,0 C33.4706441,0 34.1694915,0.708610169 34.1694915,1.57342373 L34.1694915,18.7118644" id="Stroke-1" stroke="#000000" stroke-width="2"></path>
        <path d="M8.94915254,8.94915254 L25.220339,8.94915254" id="Stroke-3" stroke="#000000" stroke-width="2"></path>
        <path d="M31.3578305,47.1864407 L13.8842034,47.1864407" id="Stroke-5" stroke="#0090D1" stroke-width="2"></path>
        <path d="M21.9661017,26.8474576 L30.1749153,23.8869153 C31.9021017,23.2328136 33.5430508,23.6623729 34.3208136,25.2536949 L40.6779661,37.4237288" id="Stroke-7" stroke="#0090D1" stroke-width="2"></path>
        <path d="M15.0405153,18.8517153 L21.9663458,26.8473763" id="Stroke-9" stroke="#0090D1" stroke-width="2"></path>
        <path d="M13.8305085,47.1864407 C13.8345763,44.0338983 15.5349153,42.1269153 18.0105763,41.5313898 C20.5651525,40.9179661 25.220339,40.6779661 25.220339,40.6779661 L10.6690169,23.4532881" id="Stroke-11" stroke="#0090D1" stroke-width="2"></path>
        <path d="M40.6779661,37.4237288 L31.3578305,47.1864407" id="Stroke-13" stroke="#0090D1" stroke-width="2"></path>
        <path d="M10.669261,23.4534508 C9.46031186,22.1826712 9.46031186,20.1211119 10.669261,18.8503322 C11.8765831,17.5803661 13.8340068,17.5803661 15.0405153,18.8519593" id="Stroke-15" stroke="#0090D1" stroke-width="2"></path>
    </g>
</svg>
