
<svg width="50px" height="50px" viewBox="140 -1 50 50" version="1.1" xmlns="http://www.w3.org/2000/svg" xmlns:xlink="http://www.w3.org/1999/xlink">
    <!-- Generator: Sketch 42 (36781) - http://www.bohemiancoding.com/sketch -->
    <desc>Created with Sketch.</desc>
    <defs></defs>
    <g id="icon_rwd" stroke="none" stroke-width="1" fill="none" fill-rule="evenodd" transform="translate(141.000000, 0.000000)" stroke-linecap="round" stroke-linejoin="round">
        <path d="M14.0689655,3.31034483 L17.3793103,3.31034483" id="Stroke-1" stroke="#0090D1" stroke-width="2"></path>
        <g id="Group-12" stroke-width="2">
            <path d="M48,44.8270345 C48,46.5707586 46.6344828,48 44.966069,48 L32.8286897,48 C31.1586207,48 29.7931034,46.5707586 29.7931034,44.8270345 L29.7931034,13.1023448 C29.7931034,11.3586207 31.1586207,9.93103448 32.8286897,9.93103448 L44.966069,9.93103448 C46.6344828,9.93103448 48,11.3586207 48,13.1023448 L48,44.8270345 Z" id="Stroke-2" stroke="#000000"></path>
            <path d="M37.2413793,13.2413793 L40.5517241,13.2413793" id="Stroke-4" stroke="#0090D1"></path>
            <path d="M24.8275862,43.0344828 L3.144,43.0344828 C1.416,43.0344828 0,41.6491034 0,39.96 L0,3.07448276 C0,1.38372414 1.416,0 3.144,0 L28.3026207,0 C30.0322759,0 31.4482759,1.38372414 31.4482759,3.07448276 L31.4482759,4.96551724" id="Stroke-6" stroke="#000000"></path>
            <path d="M15.7241379,38.0689655 C16.1817931,38.0689655 16.5517241,38.4388966 16.5517241,38.8965517 C16.5517241,39.3542069 16.1817931,39.7241379 15.7241379,39.7241379 C15.2681379,39.7241379 14.8965517,39.3542069 14.8965517,38.8965517 C14.8965517,38.4388966 15.2681379,38.0689655 15.7241379,38.0689655 Z" id="Stroke-8" stroke="#0090D1"></path>
            <path d="M38.8965517,43.0344828 C39.3542069,43.0344828 39.7241379,43.4044138 39.7241379,43.862069 C39.7241379,44.3197241 39.3542069,44.6896552 38.8965517,44.6896552 C38.4405517,44.6896552 38.0689655,44.3197241 38.0689655,43.862069 C38.0689655,43.4044138 38.4405517,43.0344828 38.8965517,43.0344828 Z" id="Stroke-10" stroke="#0090D1"></path>
        </g>
    </g>
</svg>
