
<svg width="60px" height="48px" viewBox="136 0 60 48" version="1.1" xmlns="http://www.w3.org/2000/svg" xmlns:xlink="http://www.w3.org/1999/xlink">
    <!-- Generator: Sketch 42 (36781) - http://www.bohemiancoding.com/sketch -->
    <desc>Created with Sketch.</desc>
    <defs>
        <polygon id="path-1" points="0 47.9121 60 47.9121 60 0.0001 0 0.0001"></polygon>
    </defs>
    <g id="Page-1" stroke="none" stroke-width="1" fill="none" fill-rule="evenodd" transform="translate(136.000000, 0.000000)">
        <path d="M59,44.9121 C59,46.0121 58.101,46.9121 57,46.9121 L3,46.9121 C1.899,46.9121 1,46.0121 1,44.9121 L1,3.0001 C1,1.9001 1.899,1.0001 3,1.0001 L57,1.0001 C58.101,1.0001 59,1.9001 59,3.0001 L59,44.9121 Z" id="Stroke-1" stroke="#000000" stroke-width="2" stroke-linecap="round" stroke-linejoin="round"></path>
        <path d="M1,9 L59,9" id="Stroke-3" stroke="#000000" stroke-width="2" stroke-linecap="round" stroke-linejoin="round"></path>
        <mask id="mask-2" fill="white">
            <use xlink:href="#path-1"></use>
        </mask>
        <g id="Clip-6"></g>
        <polygon id="Stroke-5" stroke="#0090D1" stroke-width="2" stroke-linecap="round" stroke-linejoin="round" mask="url(#mask-2)" points="11 38.0001 27 38.0001 27 18.0001 11 18.0001"></polygon>
        <path d="M49,18 L35,18" id="Stroke-7" stroke="#0090D1" stroke-width="2" stroke-linecap="round" stroke-linejoin="round" mask="url(#mask-2)"></path>
        <path d="M49,26 L35,26" id="Stroke-8" stroke="#000000" stroke-width="2" stroke-linecap="round" stroke-linejoin="round" mask="url(#mask-2)"></path>
        <path d="M43,34 L35,34" id="Stroke-9" stroke="#000000" stroke-width="2" stroke-linecap="round" stroke-linejoin="round" mask="url(#mask-2)"></path>
        <path id="Stroke-10" stroke="#000000" stroke-width="2" stroke-linecap="round" stroke-linejoin="round" mask="url(#mask-2)"></path>
        <path id="Stroke-11" stroke="#000000" stroke-width="2" stroke-linecap="round" stroke-linejoin="round" mask="url(#mask-2)"></path>
        <path id="Stroke-12" stroke="#000000" stroke-width="2" stroke-linecap="round" stroke-linejoin="round" mask="url(#mask-2)"></path>
    </g>
</svg>
