
<svg width="69px" height="60px" viewBox="191 223 69 60" version="1.1" xmlns="http://www.w3.org/2000/svg" xmlns:xlink="http://www.w3.org/1999/xlink">
    <!-- Generator: Sketch 42 (36781) - http://www.bohemiancoding.com/sketch -->
    <desc>Created with Sketch.</desc>
    <defs></defs>
    <g id="icon_nieodplatnie" stroke="none" stroke-width="1" fill="none" fill-rule="evenodd" transform="translate(192.000000, 224.000000)" stroke-linecap="round">
        <path d="M32.4417582,11.7907499 C37.3045802,11.4511631 42.5618022,13.2271103 46.5274725,16.3797609" id="Stroke-1" stroke="#0090D1" stroke-width="2" stroke-linejoin="round"></path>
        <path d="M66.0307692,22.1160246 C66.0307692,25.3145653 63.8576431,27.8522884 61.1230769,27.8522884" id="Stroke-3" stroke="#000000" stroke-width="2"></path>
        <path d="M33.1352822,4.90723341 C30.7091169,4.90723341 28.371217,4.95541802 26.1328985,5.46938725 C23.3830937,0.549967473 17.2543106,-1.13649407 12.4449811,1.68574769 C15.0431506,3.20700484 16.898986,5.85715868 17.3403127,8.99374769 C11.3631649,12.6649565 6.93631862,18.6742664 5.97671595,25.5577829 L0.318681319,25.5577829 L0.318681319,37.0303103 L8.2399298,37.0303103 C12.2616608,46.2083323 21.7626326,50.7973433 33.1352822,50.7973433 C48.1064418,50.7973433 60.2463209,40.5500818 60.2463209,27.7650971 C60.2463209,14.9847015 48.1064418,4.90723341 33.1352822,4.90723341 Z" id="Stroke-5" stroke="#000000" stroke-width="2" stroke-linejoin="round"></path>
        <path d="M23.2,49.4215578 L23.2,57.6817776" id="Stroke-7" stroke="#000000" stroke-width="2" stroke-linejoin="round"></path>
        <path d="M43.0857143,49.125796 L43.0857143,57.682007" id="Stroke-9" stroke="#000000" stroke-width="2" stroke-linejoin="round"></path>
        <path d="M18.9934066,23.2632774 C18.9934066,24.5298444 18.1510681,25.5577829 17.1131868,25.5577829 C16.0734253,25.5577829 15.232967,24.5298444 15.232967,23.2632774 C15.232967,21.9967103 16.0734253,20.9687719 17.1131868,20.9687719 C18.1510681,20.9687719 18.9934066,21.9967103 18.9934066,23.2632774 Z" id="Stroke-11" stroke="#0090D1" stroke-width="2" stroke-linejoin="round"></path>
    </g>
</svg>
