
<svg width="72px" height="60px" viewBox="189 223 72 60" version="1.1" xmlns="http://www.w3.org/2000/svg" xmlns:xlink="http://www.w3.org/1999/xlink">
    <!-- Generator: Sketch 42 (36781) - http://www.bohemiancoding.com/sketch -->
    <desc>Created with Sketch.</desc>
    <defs></defs>
    <g id="icon_odplatnie" stroke="none" stroke-width="1" fill="none" fill-rule="evenodd" transform="translate(190.000000, 224.000000)">
        <path d="M48.3186533,40.0593605 C50.6595995,41.1057467 51.7441664,43.9239502 50.738347,46.3508027 C49.7325275,48.7824279 47.0169344,49.9051753 44.6759881,48.8611753 L27.8073344,43.3178336" id="Stroke-1" stroke="#000000" stroke-width="2" stroke-linecap="round" stroke-linejoin="round"></path>
        <path d="M48.3186533,40.0593605 L30.351115,33.9874565 C30.351115,33.9874565 20.2595127,32.3409193 0.365048686,38.176581 L3.56267154,52.8462725 C3.56267154,52.8462725 14.0277275,50.4504416 16.511851,50.4504416 C18.9971675,50.4504416 27.6844407,54.0549262 33.2599973,55.8780485 C38.8355538,57.703557 48.2291675,57.6355479 48.2291675,57.6355479 L66.6811218,47.7551319 C69.0447378,46.7636302 70.1829961,43.972869 69.229675,41.5209605 C68.2763538,39.0690519 65.5858167,37.884261 63.2222007,38.8733765" id="Stroke-3" stroke="#000000" stroke-width="2" stroke-linecap="round" stroke-linejoin="round"></path>
        <path d="M63.2224393,38.8737344 L51.1132325,45.0076818" id="Stroke-5" stroke="#000000" stroke-width="2" stroke-linecap="round" stroke-linejoin="round"></path>
        <polygon id="Stroke-7" stroke="#000000" stroke-width="2" stroke-linecap="round" stroke-linejoin="round" points="24.2274286 26.6140722 64.7942857 26.6140722 64.7942857 0.364929371 24.2274286 0.364929371"></polygon>
        <path d="M25.056,8.71657143 L63.9988571,8.71657143" id="Stroke-9" stroke="#1C4F84" stroke-width="4"></path>
    </g>
</svg>
