
<svg width="42px" height="51px" viewBox="144 -2 42 51" version="1.1" xmlns="http://www.w3.org/2000/svg" xmlns:xlink="http://www.w3.org/1999/xlink">
    <!-- Generator: Sketch 42 (36781) - http://www.bohemiancoding.com/sketch -->
    <desc>Created with Sketch.</desc>
    <defs></defs>
    <g id="icon_register" stroke="none" stroke-width="1" fill="none" fill-rule="evenodd" transform="translate(146.000000, 0.000000)" stroke-linecap="round" stroke-linejoin="round">
        <path d="M15.8567172,30.282869 L32.6997517,13.4373517" id="Stroke-1" stroke="#0090D1" stroke-width="2"></path>
        <g id="Group-18" stroke-width="2">
            <path d="M37.0441655,17.7849931 L20.2027862,34.6296828" id="Stroke-2" stroke="#0090D1"></path>
            <path d="M32.8238069,13.3156966 C34.0229793,12.1132138 35.9694621,12.1132138 37.1686345,13.3156966 C38.3694621,14.514869 38.3694621,16.4646621 37.1686345,17.6605241" id="Stroke-4" stroke="#0090D1"></path>
            <polyline id="Stroke-6" stroke="#0090D1" points="20.2031172 34.6260414 13.2414621 37.2412138 15.8566345 30.2795586"></polyline>
            <path d="M34.7586207,6.62068966 L34.7586207,1.59889655 C34.7586207,0.719172414 34.0477241,0 33.1795862,0 L11.5862069,0" id="Stroke-8" stroke="#000000"></path>
            <path d="M0,11.5862069 L0,46.3994483 C0,47.2791724 0.710896552,48 1.57903448,48 L33.1795862,48 C34.0477241,48 34.7586207,47.2791724 34.7586207,46.3994483 L34.7586207,28.9655172" id="Stroke-10" stroke="#000000"></path>
            <polygon id="Stroke-12" stroke="#000000" points="0 11.5862069 11.5862069 11.5862069 11.5862069 0"></polygon>
            <path d="M13.2413793,37.2413793 L4.96551724,37.2413793" id="Stroke-14" stroke="#0090D1"></path>
            <path d="M30.6206897,15.7241379 L34.7586207,19.862069" id="Stroke-16" stroke="#0090D1"></path>
        </g>
    </g>
</svg>
