
<svg width="42px" height="50px" viewBox="145 -1 42 50" version="1.1" xmlns="http://www.w3.org/2000/svg" xmlns:xlink="http://www.w3.org/1999/xlink">
    <!-- Generator: Sketch 42 (36781) - http://www.bohemiancoding.com/sketch -->
    <desc>Created with Sketch.</desc>
    <defs></defs>
    <g id="icon_access" stroke="none" stroke-width="1" fill="none" fill-rule="evenodd" transform="translate(146.000000, 0.000000)" stroke-linecap="round">
        <path d="M39.7241379,46.3431724 C39.7241379,47.2535172 38.9793103,47.9983448 38.0689655,47.9983448 L1.65517241,47.9983448 C0.744827586,47.9983448 0,47.2535172 0,46.3431724 L0,18.206069 C0,17.2948966 0.744827586,16.5508966 1.65517241,16.5508966 L38.0689655,16.5508966 C38.9793103,16.5508966 39.7241379,17.2948966 39.7241379,18.206069 L39.7241379,46.3431724 Z" id="Stroke-1" stroke="#000000" stroke-width="2" stroke-linejoin="round"></path>
        <path d="M22.3448276,28.9638621 C22.3448276,30.3376552 21.2342069,31.4466207 19.862069,31.4466207 C18.489931,31.4466207 17.3793103,30.3376552 17.3793103,28.9638621 C17.3793103,27.5917241 18.489931,26.4811034 19.862069,26.4811034 C21.2342069,26.4811034 22.3448276,27.5917241 22.3448276,28.9638621 Z" id="Stroke-3" stroke="#33A6DA" stroke-width="2"></path>
        <path d="M19.862069,31.4466207 L19.862069,38.0673103" id="Stroke-5" stroke="#33A6DA" stroke-width="2"></path>
        <path d="M9.34104828,16.5504828 L8.97773793,15.5515862 C6.78877241,9.54 9.88891034,2.89034483 15.9021517,0.702206897 C21.9145655,-1.48675862 28.5650483,1.61337931 30.7531862,7.6257931 L31.4483586,9.9297931" id="Stroke-7" stroke="#000000" stroke-width="2" stroke-linejoin="round"></path>
    </g>
</svg>
