
<svg width="47px" height="49px" viewBox="143 -1 47 49" version="1.1" xmlns="http://www.w3.org/2000/svg" xmlns:xlink="http://www.w3.org/1999/xlink">
    <!-- Generator: Sketch 42 (36781) - http://www.bohemiancoding.com/sketch -->
    <desc>Created with Sketch.</desc>
    <defs></defs>
    <g id="Page-1" stroke="none" stroke-width="1" fill="none" fill-rule="evenodd" transform="translate(143.000000, 0.000000)">
        <path d="M5.6,21.6 L5.6,5.6 C5.6,2.96 7.76,0.8 10.4,0.8 L40.8,0.8 C43.44,0.8 45.6,2.96 45.6,5.6 L45.6,28 C45.6,30.64 43.44,32.8 40.8,32.8 L33.6,32.8" id="Stroke-1" stroke="#33A6DA" stroke-width="2" stroke-linecap="round" stroke-linejoin="round"></path>
        <path d="M5.6,8 L45.6,8" id="Stroke-3" stroke="#33A6DA" stroke-width="2" stroke-linecap="round" stroke-linejoin="round"></path>
        <path d="M12.4,5 C12.4,5.552 11.952,6 11.4,6 C10.848,6 10.4,5.552 10.4,5 C10.4,4.448 10.848,4 11.4,4 C11.952,4 12.4,4.448 12.4,5 Z" id="Stroke-5" fill="#000000"></path>
        <path d="M17.2,5 C17.2,5.552 16.752,6 16.2,6 C15.648,6 15.2,5.552 15.2,5 C15.2,4.448 15.648,4 16.2,4 C16.752,4 17.2,4.448 17.2,5 Z" id="Stroke-7" fill="#000000"></path>
        <path d="M22,5 C22,5.552 21.552,6 21,6 C20.448,6 20,5.552 20,5 C20,4.448 20.448,4 21,4 C21.552,4 22,4.448 22,5 Z" id="Stroke-9" fill="#000000"></path>
        <polygon id="Stroke-11" stroke="#000000" stroke-width="2" stroke-linecap="round" stroke-linejoin="round" points="0.8 47.2 8.8 47.2 8.8 31.2 0.8 31.2"></polygon>
        <path d="M5.6,43.2 C5.6,43.6416 5.2416,44 4.8,44 C4.3584,44 4,43.6416 4,43.2 C4,42.7584 4.3584,42.4 4.8,42.4 C5.2416,42.4 5.6,42.7584 5.6,43.2 Z" id="Stroke-13" fill="#33A6DA"></path>
        <path d="M8.8,45.6 L44,45.6 C44,45.6 42.4,39.2 29.6,39.2 L14.4,39.2" id="Stroke-14" stroke="#000000" stroke-width="2" stroke-linecap="round" stroke-linejoin="round"></path>
        <path d="M24,39.2 C24,39.2 21.6,34.4 16,34.4 L8.8,34.4" id="Stroke-15" stroke="#000000" stroke-width="2" stroke-linecap="round" stroke-linejoin="round"></path>
    </g>
</svg>
